<svg xmlns="http://www.w3.org/2000/svg" viewBox="0 0 272.79 143.64"><defs><style>.cls-1{fill:none;stroke:#000;stroke-miterlimit:10;}.cls-2{fill:#e0b93d;}.cls-3{fill:#e23b50;}</style></defs><title>2011</title><g id="Layer_2" data-name="Layer 2"><g id="headings"><g id="debut_single" data-name="debut single"><path class="cls-1" d="M18.86,68.42H9.91V82.77H.5V46H9.91V59.21h9V46h9.41V82.77H18.86Z"/><path class="cls-1" d="M43.88,83.14c-7.21,0-12.64-5.67-12.64-15s5.43-15,12.64-15,12.63,5.67,12.63,15S51.08,83.14,43.88,83.14Zm0-10c1.65,0,3.09-1.56,3.09-5s-1.44-5-3.09-5-3.1,1.56-3.1,5S42.18,73.15,43.88,73.15Z"/><path class="cls-1" d="M70.12,83.14c-6.91,0-11.45-4.53-11.87-10.51h9a2.63,2.63,0,0,0,2.8,2.55,1.42,1.42,0,0,0,1.57-1.35c0-3.85-12.34-.32-12.34-11.08,0-5.3,3.43-9.67,10.17-9.67s10.18,4.73,10.86,10.5H72a2.63,2.63,0,0,0-2.72-2.49c-.93,0-1.48.46-1.48,1.35,0,3.64,12.51.26,12.51,11.54C80.3,79.18,76.48,83.14,70.12,83.14Z"/><path class="cls-1" d="M85.51,63.06h-3V53.44h3V46.37h9.41v7.07h3.91v9.62H94.92V71c0,1.35.51,2,1.74,2h2.25v9.83H95.35c-5.6,0-9.84-2.91-9.84-12Z"/><path class="cls-1" d="M113.45,83.14c-7.16,0-12.21-5.67-12.21-15s5.05-15,12.21-15,12.22,5.56,12.22,14.77a21.63,21.63,0,0,1-.13,2.28h-15.1c.13,3,1.27,3.8,2.55,3.8a2.31,2.31,0,0,0,2.2-1.72h10C124.14,78.46,119.47,83.14,113.45,83.14Zm-2.92-18h5.59a2.64,2.64,0,0,0-2.67-3C111.88,62.13,110.82,63.06,110.53,65.09Z"/><path class="cls-1" d="M137.24,53.08a6.83,6.83,0,0,1,6.57,4.37V44.29h9.42V82.77h-9.42v-4a6.84,6.84,0,0,1-6.57,4.37c-5.51,0-9.88-5.57-9.88-15S131.73,53.08,137.24,53.08Zm3.14,10.09c-1.95,0-3.48,1.71-3.48,4.94s1.53,4.94,3.48,4.94,3.47-1.72,3.47-4.94S142.33,63.17,140.38,63.17Z"/><path class="cls-2" d="M176.25,46h9.37V69.72c0,9-4.12,13.42-10.73,13.42-7,0-11.92-4.79-11.92-14.46h9.29c0,3.22,1,4.06,2.21,4.06,1,0,1.78-.63,1.78-3Z"/><path class="cls-2" d="M215,82.77h-9.41V78.3A8.14,8.14,0,0,1,198.25,83c-5.51,0-8.73-4.94-8.73-12.53v-17h9.37V69c0,2.81,1.31,4.52,3.35,4.52s3.35-1.71,3.35-4.52V53.44H215Z"/><path class="cls-2" d="M235.35,67.22c0-2.8-1.31-4.52-3.35-4.52s-3.35,1.72-3.35,4.52V82.77h-9.41V53.44h9.41v4.48A8.14,8.14,0,0,1,236,53.23c5.51,0,8.73,4.94,8.73,12.54v17h-9.37Z"/><path class="cls-2" d="M260.15,83.14c-7.2,0-12.63-5.67-12.63-15s5.43-15,12.63-15,12.64,5.67,12.64,15S267.36,83.14,260.15,83.14Zm0-10c1.66,0,3.1-1.56,3.1-5s-1.44-5-3.1-5-3.09,1.56-3.09,5S258.46,73.15,260.15,73.15Z"/><path class="cls-1" d="M121.93,137.21h-10l-1.49,5.56h-9.88l11-36.82H122.4l10.94,36.82h-9.92Zm-5-18.93-2.71,10.24h5.42Z"/><path class="cls-1" d="M133.29,113.44h9.33l2,17.84,3.09-17.84h10L161,131.49l2-18.05h8.69l-5.68,29.33h-10.6l-2.88-16.53-3.06,16.53h-10.6Z"/><path class="cls-1" d="M182.35,113.08a6.91,6.91,0,0,1,6.62,4.37v-4h9.37v29.33H189v-4a6.92,6.92,0,0,1-6.62,4.37c-5.51,0-9.88-5.57-9.88-15S176.84,113.08,182.35,113.08Zm3.14,10.09c-2,0-3.48,1.71-3.48,4.94s1.53,4.94,3.48,4.94,3.48-1.72,3.48-4.94S187.44,123.17,185.49,123.17Z"/><path class="cls-1" d="M212,142.77h-9.42V113.44H212v5.41c1.86-3.28,4.75-5.62,7.84-5.62v12.33h-2.67c-3.39,0-5.17,1.19-5.17,5.2Z"/><path class="cls-1" d="M231,113.08a6.85,6.85,0,0,1,6.58,4.37V104.29H247v38.48h-9.41v-4a6.87,6.87,0,0,1-6.58,4.37c-5.51,0-9.88-5.57-9.88-15S225.47,113.08,231,113.08Zm3.14,10.09c-2,0-3.48,1.71-3.48,4.94s1.53,4.94,3.48,4.94,3.48-1.72,3.48-4.94S236.07,123.17,234.12,123.17Z"/><path class="cls-1" d="M261.85,143.14c-6.91,0-11.45-4.53-11.87-10.51h9a2.63,2.63,0,0,0,2.8,2.55,1.42,1.42,0,0,0,1.57-1.35c0-3.85-12.34-.32-12.34-11.08,0-5.3,3.43-9.67,10.17-9.67s10.18,4.73,10.86,10.5h-8.35a2.63,2.63,0,0,0-2.72-2.49c-.93,0-1.48.46-1.48,1.35,0,3.64,12.51.26,12.51,11.54C272,139.18,268.21,143.14,261.85,143.14Z"/><path class="cls-3" d="M223,17.79c3.58-3.31,7.37-7.15,7.37-10.43,0-1-.38-1.56-1-1.56s-1.12.75-1,2.59h-5.47C223.1,2.34,226.3,0,229.79,0c4.63,0,6.28,3.21,6.28,6.83,0,4.53-2.8,8.3-5.75,10.58h5.83V23H223Z"/><path class="cls-3" d="M245.13,0c5.37,0,7.63,4.74,7.63,11.58s-2.26,11.6-7.63,11.6-7.63-4.74-7.63-11.6S239.74,0,245.13,0Zm0,6.55c-1.86,0-2.09,2.19-2.09,5s.23,5,2.09,5,2.06-2.18,2.06-5S247,6.55,245.13,6.55Z"/><path class="cls-3" d="M256.47,7h-2.69V.5h8.62V23.31h-5.93Z"/><path class="cls-3" d="M266.62,7h-2.69V.5h8.62V23.31h-5.93Z"/></g></g></g></svg>