<svg xmlns="http://www.w3.org/2000/svg" viewBox="0 0 324.86 143.64"><defs><style>.cls-1{fill:#e23b50;}.cls-2{fill:none;stroke:#000;}.cls-3{fill:#4a82dd;}</style></defs><title>2015</title><g id="Layer_2" data-name="Layer 2"><g id="headings"><g id="debut_single" data-name="debut single"><path class="cls-1" d="M14,46C21.54,46,25.4,51.26,25.4,58c0,4.83-2.2,8.94-6.49,10.66l6.53,14.09H15.1L9.46,69.56H9.41V82.77H0V46Zm-.84,9.68H9.41v6.24h3.74c1.78,0,2.71-.94,2.71-3.12C15.86,56.87,14.93,55.63,13.15,55.63Z"/><path class="cls-1" d="M37,53.08a6.88,6.88,0,0,1,6.61,4.37v-4H53V82.77H43.63v-4A6.9,6.9,0,0,1,37,83.14c-5.52,0-9.88-5.57-9.88-15S31.5,53.08,37,53.08Zm3.13,10.09c-1.95,0-3.47,1.71-3.47,4.94s1.52,4.94,3.47,4.94,3.48-1.72,3.48-4.94S42.1,63.17,40.15,63.17Z"/><path class="cls-1" d="M73.23,53.08c5.51,0,9.88,5.56,9.88,15s-4.37,15-9.88,15a6.87,6.87,0,0,1-6.58-4.37v18H57.24V53.44h9.41v4A6.85,6.85,0,0,1,73.23,53.08ZM70.09,63.17c-2,0-3.48,1.71-3.48,4.94s1.53,4.94,3.48,4.94,3.47-1.72,3.47-4.94S72,63.17,70.09,63.17Z"/><path class="cls-1" d="M87.56,63.06h-3V53.44h3V46.37H97v7.07h3.9v9.62H97V71c0,1.35.51,2,1.74,2H101v9.83H97.39c-5.59,0-9.83-2.91-9.83-12Z"/><path class="cls-1" d="M115.92,83.14c-7.21,0-12.64-5.67-12.64-15s5.43-15,12.64-15,12.64,5.67,12.64,15S123.13,83.14,115.92,83.14Zm0-10c1.65,0,3.1-1.56,3.1-5s-1.45-5-3.1-5-3.09,1.56-3.09,5S114.23,73.15,115.92,73.15Z"/><path class="cls-1" d="M140.94,82.77h-9.42V53.44h9.42v5.41c1.86-3.28,4.75-5.62,7.84-5.62V65.56h-2.67c-3.39,0-5.17,1.19-5.17,5.2Z"/><path class="cls-1" d="M162,83.14c-6.92,0-11.45-4.53-11.88-10.51h9a2.62,2.62,0,0,0,2.79,2.55,1.41,1.41,0,0,0,1.57-1.35c0-3.85-12.34-.32-12.34-11.08,0-5.3,3.44-9.67,10.18-9.67s10.18,4.73,10.86,10.5h-8.36a2.62,2.62,0,0,0-2.71-2.49c-.93,0-1.49.46-1.49,1.35,0,3.64,12.51.26,12.51,11.54C172.14,79.18,168.33,83.14,162,83.14Z"/><path class="cls-2" d="M211.41,58.54h-9.93a4.22,4.22,0,0,0-4-2.29c-3.65,0-5.69,3.17-5.69,8.06,0,5.72,2.12,8.58,6.75,8.58a5.84,5.84,0,0,0,5.25-3.22h-7.5V61.5h15.31V73.05c-2.08,4.42-6.32,10-14.08,10-9.46,0-15.27-7.75-15.27-18.72S188,45.59,197.41,45.59C205.39,45.59,210.52,50.69,211.41,58.54Z"/><path class="cls-2" d="M215,44.29h9.41V82.77H215Z"/><path class="cls-2" d="M240,83.14c-7.21,0-12.63-5.67-12.63-15s5.42-15,12.63-15,12.64,5.67,12.64,15S247.19,83.14,240,83.14Zm0-10c1.66,0,3.1-1.56,3.1-5s-1.44-5-3.1-5-3.09,1.56-3.09,5S238.29,73.15,240,73.15Z"/><path class="cls-2" d="M271.57,53.08c5.51,0,9.88,5.56,9.88,15s-4.37,15-9.88,15A6.84,6.84,0,0,1,265,78.77v4h-9.42V44.29H265V57.45A6.83,6.83,0,0,1,271.57,53.08Zm-3.14,10.09c-1.95,0-3.47,1.71-3.47,4.94s1.52,4.94,3.47,4.94,3.48-1.72,3.48-4.94S270.38,63.17,268.43,63.17Z"/><path class="cls-2" d="M293,53.08a6.91,6.91,0,0,1,6.62,4.37v-4H309V82.77h-9.37v-4A6.92,6.92,0,0,1,293,83.14c-5.51,0-9.88-5.57-9.88-15S287.51,53.08,293,53.08Zm3.14,10.09c-2,0-3.48,1.71-3.48,4.94s1.53,4.94,3.48,4.94,3.48-1.72,3.48-4.94S298.11,63.17,296.16,63.17Z"/><path class="cls-2" d="M313.25,44.29h9.41V82.77h-9.41Z"/><path class="cls-2" d="M56.56,137.21h-10l-1.48,5.56H35.19l11-36.82H57L68,142.77H58.05Zm-5-18.93-2.72,10.24h5.43Z"/><path class="cls-2" d="M102.27,127.22c0-2.49-1.31-4-3.35-4s-3.35,1.51-3.35,4v15.55H86.2V127.22c0-2.49-1.32-4-3.35-4s-3.35,1.51-3.35,4v15.55H70.09V113.44H79.5v4a7.71,7.71,0,0,1,6.91-4.16c3.48,0,6.19,1.93,7.76,5.26,1.61-2.81,4.33-5.26,7.85-5.26,6.19,0,9.62,4.94,9.62,12.54v17h-9.37Z"/><path class="cls-2" d="M131.69,113.08c5.52,0,9.88,5.56,9.88,15s-4.36,15-9.88,15a6.85,6.85,0,0,1-6.57-4.37v4h-9.41V104.29h9.41v13.16A6.84,6.84,0,0,1,131.69,113.08Zm-3.13,10.09c-2,0-3.48,1.71-3.48,4.94s1.53,4.94,3.48,4.94,3.47-1.72,3.47-4.94S130.51,123.17,128.56,123.17Z"/><path class="cls-2" d="M153.15,113.08a6.88,6.88,0,0,1,6.61,4.37v-4h9.37v29.33h-9.37v-4a6.9,6.9,0,0,1-6.61,4.37c-5.52,0-9.88-5.57-9.88-15S147.63,113.08,153.15,113.08Zm3.14,10.09c-2,0-3.48,1.71-3.48,4.94s1.52,4.94,3.48,4.94,3.47-1.72,3.47-4.94S158.24,123.17,156.29,123.17Z"/><path class="cls-2" d="M184,143.14c-6.91,0-11.45-4.53-11.87-10.51h9a2.64,2.64,0,0,0,2.8,2.55,1.41,1.41,0,0,0,1.57-1.35c0-3.85-12.34-.32-12.34-11.08,0-5.3,3.44-9.67,10.18-9.67s10.18,4.73,10.85,10.5h-8.35a2.62,2.62,0,0,0-2.71-2.49c-.94,0-1.49.46-1.49,1.35,0,3.64,12.51.26,12.51,11.54C194.19,139.18,190.38,143.14,184,143.14Z"/><path class="cls-2" d="M208.56,143.14c-6.91,0-11.45-4.53-11.87-10.51h9a2.63,2.63,0,0,0,2.8,2.55,1.41,1.41,0,0,0,1.57-1.35c0-3.85-12.34-.32-12.34-11.08,0-5.3,3.44-9.67,10.18-9.67s10.17,4.73,10.85,10.5h-8.35a2.63,2.63,0,0,0-2.71-2.49c-.94,0-1.49.46-1.49,1.35,0,3.64,12.51.26,12.51,11.54C218.74,139.18,214.92,143.14,208.56,143.14Z"/><path class="cls-2" d="M231.08,113.08a6.88,6.88,0,0,1,6.61,4.37v-4h9.37v29.33h-9.37v-4a6.9,6.9,0,0,1-6.61,4.37c-5.52,0-9.88-5.57-9.88-15S225.56,113.08,231.08,113.08Zm3.14,10.09c-2,0-3.48,1.71-3.48,4.94s1.52,4.94,3.48,4.94,3.47-1.72,3.47-4.94S236.17,123.17,234.22,123.17Z"/><path class="cls-2" d="M259.91,113.08a6.83,6.83,0,0,1,6.57,4.37V104.29h9.42v38.48h-9.42v-4a6.84,6.84,0,0,1-6.57,4.37c-5.51,0-9.88-5.57-9.88-15S254.4,113.08,259.91,113.08Zm3.14,10.09c-1.95,0-3.48,1.71-3.48,4.94s1.53,4.94,3.48,4.94,3.47-1.72,3.47-4.94S265,123.17,263.05,123.17Z"/><path class="cls-2" d="M291.5,143.14c-7.21,0-12.64-5.67-12.64-15s5.43-15,12.64-15,12.63,5.67,12.63,15S298.71,143.14,291.5,143.14Zm0-10c1.65,0,3.09-1.56,3.09-5s-1.44-5.05-3.09-5.05-3.1,1.56-3.1,5.05S289.8,133.15,291.5,133.15Z"/><path class="cls-2" d="M316.51,142.77H307.1V113.44h9.41v5.41c1.87-3.28,4.75-5.62,7.85-5.62v12.33h-2.67c-3.4,0-5.18,1.19-5.18,5.2Z"/><path class="cls-3" d="M122.92,23.53c-4.12,0-7.35-2.34-7.6-7.3h6c.1,1.62.82,1.9,1.38,1.9A1,1,0,0,0,123.79,17c0-3-8.52-1.91-8.42-9.46,0-4.43,3-6.74,6.89-6.74,4.35,0,7.15,2.56,7.3,7.15h-6.08c0-1.34-.63-1.75-1.24-1.75-.46,0-.82.38-.82,1.12,0,2.78,8.37,2.31,8.37,9.12C129.79,20.53,127.27,23.53,122.92,23.53Z"/><path class="cls-3" d="M138.34,23.53c-4.3,0-7.32-3.4-7.32-9s3-9,7.32-9,7.33,3.34,7.33,8.86a12.77,12.77,0,0,1-.08,1.38h-9.06c.08,1.78.77,2.27,1.53,2.27a1.38,1.38,0,0,0,1.32-1h6C144.75,20.72,142,23.53,138.34,23.53ZM136.59,12.7h3.35a1.59,1.59,0,0,0-1.6-1.78C137.4,10.92,136.76,11.48,136.59,12.7Z"/><path class="cls-3" d="M157,5.49c3.31,0,5.93,3.34,5.93,9s-2.62,9-5.93,9a4.1,4.1,0,0,1-3.94-2.62V31.73h-5.65v-26h5.65v2.4A4.1,4.1,0,0,1,157,5.49Zm-1.88,6.06c-1.17,0-2.09,1-2.09,3s.92,3,2.09,3,2.08-1,2.08-3S156.33,11.55,155.16,11.55Z"/><path class="cls-3" d="M165.64,11.48h-1.78V5.71h1.78V1.47h5.65V5.71h2.33v5.77h-2.33v4.75c0,.81.3,1.18,1,1.18h1.35v5.9h-2.14c-3.36,0-5.9-1.75-5.9-7.21Z"/><path class="cls-3" d="M182.4,23.53c-4.3,0-7.32-3.4-7.32-9s3-9,7.32-9,7.33,3.34,7.33,8.86a12.77,12.77,0,0,1-.08,1.38H180.6c.07,1.78.76,2.27,1.52,2.27a1.4,1.4,0,0,0,1.33-1h6C188.81,20.72,186,23.53,182.4,23.53ZM180.65,12.7H184a1.59,1.59,0,0,0-1.6-1.78C181.46,10.92,180.83,11.48,180.65,12.7Z"/><path class="cls-3" d="M210.82,14c0-1.5-.79-2.4-2-2.4s-2,.9-2,2.4v9.33h-5.62V14c0-1.5-.79-2.4-2-2.4s-2,.9-2,2.4v9.33h-5.65V5.71h5.65V8.08a4.61,4.61,0,0,1,4.14-2.49A5,5,0,0,1,206,8.74a5.62,5.62,0,0,1,4.7-3.15c3.72,0,5.78,3,5.78,7.52v10.2h-5.62Z"/><path class="cls-3" d="M228.47,5.49c3.31,0,5.93,3.34,5.93,9s-2.62,9-5.93,9a4.12,4.12,0,0,1-3.94-2.62v2.4h-5.65V.22h5.65V8.11A4.12,4.12,0,0,1,228.47,5.49Zm-1.88,6.06c-1.17,0-2.09,1-2.09,3s.92,3,2.09,3,2.09-1,2.09-3S227.76,11.55,226.59,11.55Z"/><path class="cls-3" d="M242.75,23.53c-4.3,0-7.33-3.4-7.33-9s3-9,7.33-9,7.32,3.34,7.32,8.86a10.64,10.64,0,0,1-.08,1.38h-9.05c.08,1.78.76,2.27,1.53,2.27a1.39,1.39,0,0,0,1.32-1h6C249.15,20.72,246.36,23.53,242.75,23.53ZM241,12.7h3.36a1.59,1.59,0,0,0-1.6-1.78C241.8,10.92,241.17,11.48,241,12.7Z"/><path class="cls-3" d="M257.5,23.31h-5.65V5.71h5.65V9c1.12-2,2.85-3.37,4.71-3.37V13H260.6c-2,0-3.1.72-3.1,3.12Z"/><path class="cls-3" d="M267.5,17.79c3.59-3.31,7.38-7.15,7.38-10.43,0-1-.39-1.56-1-1.56s-1.12.75-1,2.59h-5.47C267.6,2.34,270.81,0,274.29,0c4.63,0,6.28,3.21,6.28,6.83,0,4.53-2.8,8.3-5.75,10.58h5.83V23H267.5Z"/><path class="cls-3" d="M289.63,0c5.37,0,7.63,4.74,7.63,11.58s-2.26,11.6-7.63,11.6S282,18.44,282,11.58,284.24,0,289.63,0Zm0,6.55c-1.86,0-2.09,2.19-2.09,5s.23,5,2.09,5,2.06-2.18,2.06-5S291.46,6.55,289.63,6.55Z"/><path class="cls-3" d="M301,7h-2.7V.5h8.62V23.31H301Z"/><path class="cls-3" d="M323,.5V6.58h-7.37V9.21a3.92,3.92,0,0,1,3-1.16c3.61,0,5.29,3.46,5.29,7.37,0,5-2.44,7.89-6.44,7.89-4.47,0-7-3.06-7-7.3H316a1.23,1.23,0,0,0,1.19,1.37c.89,0,1.25-.87,1.25-2.09s-.51-1.84-1.32-1.84a1,1,0,0,0-1.1,1h-5.49V.5Z"/></g></g></g></svg>