<svg xmlns="http://www.w3.org/2000/svg" viewBox="0 0 319.38 92.31"><defs><style>.cls-1{fill:none;stroke:#000;}.cls-2{fill:#e23b50;}.cls-3{fill:#e5e01a;}</style></defs><title>2016</title><g id="Layer_2" data-name="Layer 2"><g id="headings"><g id="desrassi"><path class="cls-1" d="M10.2,61.81v16H.79V41H10.2v15.5L18.81,41H29.45L19.11,58.58l11,19.19H18.94Z"/><path class="cls-1" d="M43.74,78.14c-7.17,0-12.21-5.67-12.21-15s5-15,12.21-15S56,53.64,56,62.85a21.62,21.62,0,0,1-.12,2.28H40.73c.13,3,1.27,3.8,2.54,3.8a2.32,2.32,0,0,0,2.21-1.72h10C54.43,73.46,49.76,78.14,43.74,78.14Zm-2.93-18h5.6a2.64,2.64,0,0,0-2.67-3C42.17,57.13,41.11,58.06,40.81,60.09Z"/><path class="cls-1" d="M75.54,48.44H85.93L70.62,91.81H60.32l6-15.49-10-27.88H66.85l4.49,14.88Z"/><path class="cls-1" d="M96.31,58.06h-3V48.44h3V41.37h9.42v7.07h3.9v9.62h-3.9V66c0,1.35.51,2,1.74,2h2.24v9.83h-3.56c-5.6,0-9.84-2.91-9.84-12Z"/><path class="cls-1" d="M124.68,78.14c-7.21,0-12.64-5.67-12.64-15s5.43-15,12.64-15,12.64,5.67,12.64,15S131.89,78.14,124.68,78.14Zm0-10c1.65,0,3.1-1.56,3.1-5s-1.45-5-3.1-5-3.1,1.56-3.1,5S123,68.15,124.68,68.15Z"/><path class="cls-2" d="M145.79,41h25.28v9.16h-8V77.77h-9.41V50.11h-7.89Z"/><path class="cls-2" d="M185,78.14c-7.21,0-12.63-5.67-12.63-15s5.42-15,12.63-15,12.64,5.67,12.64,15S192.18,78.14,185,78.14Zm0-10c1.66,0,3.1-1.56,3.1-5s-1.44-5-3.1-5-3.09,1.56-3.09,5S183.28,68.15,185,68.15Z"/><path class="cls-2" d="M210,77.77h-9.42V48.44H210v5.41c1.86-3.28,4.75-5.62,7.84-5.62V60.56h-2.67c-3.39,0-5.17,1.19-5.17,5.2Z"/><path class="cls-2" d="M231.74,78.14c-7.21,0-12.64-5.67-12.64-15s5.43-15,12.64-15,12.64,5.67,12.64,15S239,78.14,231.74,78.14Zm0-10c1.65,0,3.09-1.56,3.09-5s-1.44-5-3.09-5-3.1,1.56-3.1,5S230,68.15,231.74,68.15Z"/><path class="cls-2" d="M263.45,62.22c0-2.8-1.31-4.52-3.35-4.52s-3.35,1.72-3.35,4.52V77.77h-9.41V48.44h9.41v4.48a8.15,8.15,0,0,1,7.34-4.69c5.51,0,8.74,4.94,8.74,12.54v17h-9.38Z"/><path class="cls-2" d="M278.38,58.06h-3V48.44h3V41.37h9.41v7.07h3.9v9.62h-3.9V66c0,1.35.51,2,1.74,2h2.25v9.83h-3.57c-5.59,0-9.83-2.91-9.83-12Z"/><path class="cls-2" d="M306.74,78.14c-7.21,0-12.63-5.67-12.63-15s5.42-15,12.63-15,12.64,5.67,12.64,15S314,78.14,306.74,78.14Zm0-10c1.66,0,3.1-1.56,3.1-5s-1.44-5-3.1-5-3.09,1.56-3.09,5S305.05,68.15,306.74,68.15Z"/><path class="cls-3" d="M0,1.22H12.72V6.71H5.65V9.77h5.08V15H5.65v8.33H0Z"/><path class="cls-3" d="M21.19,23.53c-4.3,0-7.32-3.4-7.32-9s3-9,7.32-9,7.33,3.34,7.33,8.86a12.77,12.77,0,0,1-.08,1.38H19.38c.08,1.78.77,2.27,1.53,2.27a1.38,1.38,0,0,0,1.32-1h6C27.6,20.72,24.8,23.53,21.19,23.53ZM19.44,12.7h3.35a1.59,1.59,0,0,0-1.6-1.78C20.25,10.92,19.61,11.48,19.44,12.7Z"/><path class="cls-3" d="M39.89,5.49c3.31,0,5.93,3.34,5.93,9s-2.62,9-5.93,9A4.1,4.1,0,0,1,36,20.91v2.4H30.3V.22H36V8.11A4.1,4.1,0,0,1,39.89,5.49ZM38,11.55c-1.17,0-2.09,1-2.09,3s.92,3,2.09,3,2.08-1,2.08-3S39.18,11.55,38,11.55Z"/><path class="cls-3" d="M53.25,23.31H47.6V5.71h5.65V9c1.11-2,2.84-3.37,4.7-3.37V13h-1.6c-2,0-3.1.72-3.1,3.12Z"/><path class="cls-3" d="M74.66,23.31H69V20.63a4.88,4.88,0,0,1-4.4,2.8c-3.31,0-5.24-3-5.24-7.52V5.71H65V15c0,1.69.79,2.71,2,2.71s2-1,2-2.71V5.71h5.64Z"/><path class="cls-3" d="M82.37,5.49a4.15,4.15,0,0,1,4,2.62V5.71H92v17.6H86.34v-2.4a4.15,4.15,0,0,1-4,2.62c-3.3,0-5.92-3.34-5.92-9S79.07,5.49,82.37,5.49Zm1.89,6.06c-1.17,0-2.09,1-2.09,3s.92,3,2.09,3,2.08-1,2.08-3S85.43,11.55,84.26,11.55Z"/><path class="cls-3" d="M100.16,23.31H94.51V5.71h5.65V9c1.12-2,2.84-3.37,4.7-3.37V13h-1.6c-2,0-3.1.72-3.1,3.12Z"/><path class="cls-3" d="M116.36,5.71h6.23l-9.18,26h-6.18l3.61-9.29-6-16.73h6.29l2.69,8.92Z"/><path class="cls-3" d="M127.38,17.79c3.58-3.31,7.37-7.15,7.37-10.43,0-1-.38-1.56-1-1.56s-1.12.75-1,2.59H127.3c.18-6.05,3.38-8.39,6.87-8.39,4.63,0,6.28,3.21,6.28,6.83,0,4.53-2.8,8.3-5.75,10.58h5.83V23H127.38Z"/><path class="cls-3" d="M149.51,0c5.37,0,7.63,4.74,7.63,11.58s-2.26,11.6-7.63,11.6-7.63-4.74-7.63-11.6S144.12,0,149.51,0Zm0,6.55c-1.86,0-2.09,2.19-2.09,5s.23,5,2.09,5,2.06-2.18,2.06-5S151.34,6.55,149.51,6.55Z"/><path class="cls-3" d="M160.86,7h-2.7V.5h8.62V23.31h-5.92Z"/><path class="cls-3" d="M177.34,7.43c-.18-1.19-.51-1.81-1.35-1.81-1.37,0-1.6,1.9-1.6,4.93a3.63,3.63,0,0,1,3.28-1.88c3.15,0,5.37,2.41,5.37,7.18s-2.52,7.68-6.57,7.68c-5.74,0-7.09-5-7.09-11.45,0-8.4,2-12,7-12,4.35,0,6.08,3.65,6.25,7.34Zm-2.57,8.33c0,1.28.59,1.84,1.5,1.84s1.5-.56,1.5-1.84-.61-1.78-1.5-1.78S174.77,14.6,174.77,15.76Z"/></g></g></g></svg>