<svg xmlns="http://www.w3.org/2000/svg" viewBox="0 0 441.38 86.22"><defs><style>.cls-1{fill:#4a82dd;}.cls-2{fill:none;stroke:#000;}.cls-3{fill:#6fdb4b;}</style></defs><title>2017</title><g id="Layer_2" data-name="Layer 2"><g id="headings"><g id="debut_single" data-name="debut single"><path class="cls-1" d="M5.19,59.73H0V49.54H16.61V85.35H5.19Z"/><path class="cls-1" d="M33.91,48.75c7.93,0,12.15,4.41,12.15,10,0,5.09-3.14,7.3-5.25,8v.2c3.39,1.27,5.88,3.67,5.88,8.18,0,6.32-4.55,10.58-12.1,10.58-8,0-13.57-3.52-13.72-12.54H31.46c-.15,2.3.58,3.58,2.64,3.58a2.14,2.14,0,0,0,2.06-2.4c0-1.77-1-2.79-4-2.79H30.38V62.76h1.76c.88.05,3.33.1,3.33-2.64,0-1.77-.88-2.4-1.81-2.4-1.57,0-1.81,1.61-1.81,3H21.27C21.46,53,25.92,48.75,33.91,48.75Z"/><path class="cls-2" d="M76.74,85.35H61V48.53h15.3c6,0,9.84,3.18,9.84,9.57,0,4.42-2.08,7.44-5.05,8.37,3.69,1.1,5.73,4.69,5.73,8.79C86.83,81.71,83.27,85.35,76.74,85.35ZM74.07,57.69H70.42v5.2h3.65c1.69,0,2.5-.78,2.5-2.55S75.76,57.69,74.07,57.69ZM74.7,70.9H70.42v5.19H74.7c1.7,0,2.5-.72,2.5-2.54S76.4,70.9,74.7,70.9Z"/><path class="cls-2" d="M89.33,48c0-3.22,2.08-5.77,5.43-5.77s5.38,2.55,5.38,5.77-2.08,5.67-5.38,5.67S89.33,51.19,89.33,48ZM90,56h9.41V85.35H90Z"/><path class="cls-2" d="M103.66,46.87h9.41V85.35h-9.41Z"/><path class="cls-2" d="M117.31,46.87h9.41V85.35h-9.41Z"/><path class="cls-2" d="M147,55.66c5.51,0,9.88,5.56,9.88,15s-4.37,15-9.88,15a6.84,6.84,0,0,1-6.57-4.37v4H131V46.87h9.42V60A6.83,6.83,0,0,1,147,55.66Zm-3.14,10.09c-1.95,0-3.48,1.71-3.48,4.94s1.53,4.94,3.48,4.94,3.48-1.72,3.48-4.94S145.76,65.75,143.81,65.75Z"/><path class="cls-2" d="M171.16,85.72c-7.21,0-12.64-5.67-12.64-15s5.43-15,12.64-15,12.64,5.67,12.64,15S178.37,85.72,171.16,85.72Zm0-10c1.65,0,3.09-1.56,3.09-5s-1.44-5-3.09-5-3.1,1.56-3.1,5S169.46,75.73,171.16,75.73Z"/><path class="cls-2" d="M195.37,55.66A6.88,6.88,0,0,1,202,60V56h9.38V85.35H202v-4a6.9,6.9,0,0,1-6.61,4.37c-5.51,0-9.88-5.57-9.88-15S189.86,55.66,195.37,55.66Zm3.14,10.09c-1.95,0-3.48,1.71-3.48,4.94s1.53,4.94,3.48,4.94S202,73.91,202,70.69,200.46,65.75,198.51,65.75Z"/><path class="cls-2" d="M225,85.35h-9.42V56H225v5.41c1.86-3.28,4.75-5.62,7.84-5.62V68.14h-2.67c-3.39,0-5.17,1.19-5.17,5.2Z"/><path class="cls-2" d="M244,55.66A6.83,6.83,0,0,1,250.57,60V46.87H260V85.35h-9.42v-4A6.84,6.84,0,0,1,244,85.72c-5.51,0-9.88-5.57-9.88-15S238.49,55.66,244,55.66Zm3.14,10.09c-1.95,0-3.48,1.71-3.48,4.94s1.53,4.94,3.48,4.94,3.48-1.72,3.48-4.94S249.09,65.75,247.14,65.75Z"/><path class="cls-2" d="M290.68,79.79h-10l-1.49,5.56h-9.88l11-36.82h10.85l10.94,36.82h-9.92Zm-5-18.93L283,71.1h5.42Z"/><path class="cls-2" d="M302,56h9.33l2,17.84L316.46,56h10.05l3.27,18,2-18h8.7l-5.69,29.33h-10.6l-2.88-16.53-3,16.53H307.68Z"/><path class="cls-2" d="M351.1,55.66A6.91,6.91,0,0,1,357.72,60V56h9.37V85.35h-9.37v-4a6.92,6.92,0,0,1-6.62,4.37c-5.51,0-9.88-5.57-9.88-15S345.59,55.66,351.1,55.66Zm3.14,10.09c-1.95,0-3.48,1.71-3.48,4.94s1.53,4.94,3.48,4.94,3.48-1.72,3.48-4.94S356.19,65.75,354.24,65.75Z"/><path class="cls-2" d="M380.74,85.35h-9.41V56h9.41v5.41c1.87-3.28,4.75-5.62,7.84-5.62V68.14h-2.67c-3.39,0-5.17,1.19-5.17,5.2Z"/><path class="cls-2" d="M399.73,55.66A6.84,6.84,0,0,1,406.31,60V46.87h9.41V85.35h-9.41v-4a6.86,6.86,0,0,1-6.58,4.37c-5.51,0-9.88-5.57-9.88-15S394.22,55.66,399.73,55.66Zm3.14,10.09c-1.95,0-3.47,1.71-3.47,4.94s1.52,4.94,3.47,4.94,3.48-1.72,3.48-4.94S404.82,65.75,402.87,65.75Z"/><path class="cls-2" d="M430.6,85.72c-6.91,0-11.45-4.53-11.87-10.51h9a2.63,2.63,0,0,0,2.8,2.55,1.41,1.41,0,0,0,1.57-1.35c0-3.85-12.34-.32-12.34-11.08,0-5.3,3.43-9.67,10.18-9.67s10.17,4.73,10.85,10.5h-8.35a2.63,2.63,0,0,0-2.72-2.49c-.93,0-1.48.46-1.48,1.35,0,3.64,12.51.26,12.51,11.54C440.78,81.76,437,85.72,430.6,85.72Z"/><path class="cls-3" d="M209.22,17.79c3.58-3.31,7.37-7.15,7.37-10.43,0-1-.38-1.56-1-1.56s-1.12.75-1,2.59h-5.47C209.32,2.34,212.52,0,216,0c4.63,0,6.28,3.21,6.28,6.83,0,4.53-2.8,8.3-5.75,10.58h5.83V23H209.22Z"/><path class="cls-3" d="M231.35,0C236.72,0,239,4.74,239,11.58s-2.26,11.6-7.63,11.6-7.63-4.74-7.63-11.6S226,0,231.35,0Zm0,6.55c-1.86,0-2.09,2.19-2.09,5s.23,5,2.09,5,2.06-2.18,2.06-5S233.18,6.55,231.35,6.55Z"/><path class="cls-3" d="M242.7,7H240V.5h8.62V23.31H242.7Z"/><path class="cls-3" d="M262.66.5V5.59l-5.79,17.72h-5.8l5.85-16.88h-6.57V.5Z"/><path class="cls-3" d="M267.75,9.8h11.86v5.71H267.75Z"/><path class="cls-3" d="M304.77,1.22V23.31h-5.65l-6-11.11V23.31H287.5V1.22h5.64l6,11.29V1.22Z"/><path class="cls-3" d="M313.88,23.53c-4.3,0-7.33-3.4-7.33-9s3-9,7.33-9,7.32,3.34,7.32,8.86a10.64,10.64,0,0,1-.08,1.38h-9.05c.08,1.78.76,2.27,1.53,2.27a1.39,1.39,0,0,0,1.32-1h6C320.29,20.72,317.49,23.53,313.88,23.53ZM312.12,12.7h3.36a1.59,1.59,0,0,0-1.6-1.78C312.93,10.92,312.3,11.48,312.12,12.7Z"/><path class="cls-3" d="M321.69,5.71h5.59l1.2,10.7,1.85-10.7h6l2,10.83,1.22-10.83h5.22l-3.41,17.6H335l-1.73-9.92-1.83,9.92h-6.36Z"/><path class="cls-3" d="M358.67,1.22c4.53,0,6.85,3.18,6.85,7.24,0,2.9-1.33,5.36-3.9,6.39l3.92,8.46h-6.2L356,15.38h0v7.93h-5.65V1.22Zm-.5,5.8h-2.24v3.75h2.24c1.06,0,1.62-.57,1.62-1.88C359.79,7.77,359.23,7,358.17,7Z"/><path class="cls-3" d="M373.89,23.53c-4.3,0-7.33-3.4-7.33-9s3-9,7.33-9,7.32,3.34,7.32,8.86a12.75,12.75,0,0,1-.07,1.38h-9.06c.08,1.78.76,2.27,1.53,2.27a1.38,1.38,0,0,0,1.32-1h6C380.3,20.72,377.5,23.53,373.89,23.53ZM372.13,12.7h3.36a1.59,1.59,0,0,0-1.6-1.78C373,10.92,372.31,11.48,372.13,12.7Z"/><path class="cls-3" d="M389.56,5.49c3.69,0,6.46,2.69,7.15,7.3h-6c-.21-.84-.59-1.37-1.3-1.37-.86,0-1.47,1-1.47,3.09s.61,3.09,1.47,3.09c.71,0,1.09-.53,1.3-1.37h6c-.69,4.61-3.46,7.3-7.15,7.3-4.3,0-7.33-3.4-7.33-9S385.26,5.49,389.56,5.49Z"/><path class="cls-3" d="M405.31,23.53c-4.33,0-7.58-3.4-7.58-9s3.25-9,7.58-9,7.58,3.4,7.58,9S409.63,23.53,405.31,23.53Zm0-6c1,0,1.85-.94,1.85-3s-.86-3-1.85-3-1.86.94-1.86,3S404.29,17.54,405.31,17.54Z"/><path class="cls-3" d="M420.32,23.31h-5.65V5.71h5.65V9c1.11-2,2.84-3.37,4.7-3.37V13h-1.6c-2,0-3.1.72-3.1,3.12Z"/><path class="cls-3" d="M431.71,5.49a4.1,4.1,0,0,1,3.94,2.62V.22h5.65V23.31h-5.65v-2.4a4.1,4.1,0,0,1-3.94,2.62c-3.3,0-5.92-3.34-5.92-9S428.41,5.49,431.71,5.49Zm1.88,6.06c-1.17,0-2.08,1-2.08,3s.91,3,2.08,3,2.09-1,2.09-3S434.76,11.55,433.59,11.55Z"/></g></g></g></svg>