<svg xmlns="http://www.w3.org/2000/svg" viewBox="0 0 429.91 98.02"><defs><style>.cls-1{fill:none;stroke:#000;}.cls-2{fill:#e23b50;}</style></defs><title>birthday</title><g id="Layer_2" data-name="Layer 2"><g id="headings"><g id="birthday"><path class="cls-1" d="M19.07,87.91C8.84,87.91.5,78.49.5,65.2S8.84,42.55,19.07,42.55,37.54,51.91,37.54,65.2,29.24,87.91,19.07,87.91Zm0-12.91c4.53,0,7-3.93,7-9.8s-2.49-9.86-7-9.86S12,59.21,12,65.2,14.44,75,19.07,75Z"/><path class="cls-1" d="M54.74,51.85c7.37,0,12.92,5.36,14.29,14.6h-12c-.41-1.69-1.17-2.75-2.6-2.75-1.73,0-2.95,1.94-2.95,6.18s1.22,6.18,2.95,6.18c1.43,0,2.19-1.06,2.6-2.75H69c-1.37,9.24-6.92,14.6-14.29,14.6-8.6,0-14.66-6.8-14.66-18S46.14,51.85,54.74,51.85Z"/><path class="cls-1" d="M74.38,63.83H70.82V52.29h3.56V43.8H85.67v8.49h4.68V63.83H85.67v9.48c0,1.62.61,2.37,2.09,2.37h2.69V87.47H86.18c-6.72,0-11.8-3.49-11.8-14.41Z"/><path class="cls-1" d="M108.41,87.91c-8.65,0-15.16-6.8-15.16-18s6.51-18,15.16-18,15.16,6.8,15.16,18S117.06,87.91,108.41,87.91Zm0-12c2,0,3.72-1.87,3.72-6.05s-1.73-6-3.72-6-3.71,1.87-3.71,6S106.38,75.93,108.41,75.93Z"/><path class="cls-1" d="M146.32,51.85c6.61,0,11.85,6.67,11.85,18s-5.24,18-11.85,18a8.22,8.22,0,0,1-7.89-5.24v4.8H127.14V41.3h11.29V57.09A8.22,8.22,0,0,1,146.32,51.85ZM142.55,64c-2.34,0-4.17,2.06-4.17,5.93s1.83,5.93,4.17,5.93,4.17-2.06,4.17-5.93S144.89,64,142.55,64Z"/><path class="cls-1" d="M174.86,87.91c-8.6,0-14.65-6.8-14.65-18s6-18,14.65-18,14.65,6.67,14.65,17.72a25.16,25.16,0,0,1-.15,2.74H171.25c.15,3.56,1.53,4.56,3.05,4.56A2.79,2.79,0,0,0,177,74.81h12C187.68,82.3,182.08,87.91,174.86,87.91Zm-3.51-21.65h6.72c0-2.43-1.53-3.56-3.21-3.56C173,62.7,171.71,63.83,171.35,66.26Z"/><path class="cls-1" d="M204.37,87.47H193.08V52.29h11.29v6.48c2.24-3.93,5.7-6.73,9.41-6.73V66.82h-3.2c-4.07,0-6.21,1.44-6.21,6.24Z"/><path class="cls-1" d="M224.37,76.43c7.17-6.61,14.75-14.29,14.75-20.84,0-2-.76-3.12-1.93-3.12s-2.24,1.5-2,5.18H224.22c.35-12.1,6.76-16.78,13.73-16.78,9.26,0,12.57,6.42,12.57,13.66,0,9-5.6,16.6-11.5,21.15h11.65V86.85h-26.3Z"/><path class="cls-1" d="M270.31,80.61H254.39V69.07l15.16-26.52h12.16V68.63h3.66v12h-3.66v6.86h-11.4Zm.92-12V58.34l-5.5,10.29Z"/><path class="cls-1" d="M292.14,74.68h11.19l-6.71,22.84h-7.43Z"/><path class="cls-2" d="M319.82,54.84h-5.39v-13h17.24v45.6H319.82Z"/><path class="cls-2" d="M347.14,73.25c.36,2.37,1.17,3.62,2.85,3.62,2.74,0,3.05-3.81,3.05-9.86a7.28,7.28,0,0,1-6.56,3.74c-6.21,0-10.74-4.8-10.74-14.53,0-9.43,5.14-15.35,13.13-15.35,11.5,0,14.29,9.42,14.29,22.33,0,15.66-3.3,24.71-13.43,24.71-8.44,0-12.77-7.3-13.12-14.66Zm5.14-16.66c0-2.56-1.17-3.68-3-3.68s-3,1.12-3,3.68c0,2.31,1.23,3.56,3,3.56S352.28,58.9,352.28,56.59Z"/><path class="cls-2" d="M367.85,53c0-6.42,4.17-12.16,13.43-12.16S394.71,46.61,394.71,53c0,4.5-1.73,7.55-4.33,9.36,3.41,2.44,5.14,6,5.14,11,0,9.79-6.71,14.72-14.24,14.72S367,83.23,367,73.44c0-5,1.73-8.61,5.14-11C369.58,60.58,367.85,57.53,367.85,53ZM378,72.62c0,2.38,1.17,4.25,3.31,4.25s3.3-1.87,3.3-4.25-1.27-4.3-3.3-4.3S378,70.13,378,72.62Zm5.65-17.28c0-2.37-1-3.8-2.34-3.8s-2.34,1.43-2.34,3.8c0,2.56,1.07,3.68,2.34,3.68S383.62,57.9,383.62,55.34Z"/><path class="cls-2" d="M416.59,55.72c-.36-2.37-1-3.62-2.7-3.62-2.74,0-3.2,3.8-3.2,9.86a7.29,7.29,0,0,1,6.56-3.75C423.56,58.21,428,63,428,72.56s-5,15.35-13.12,15.35c-11.5,0-14.19-10-14.19-22.9,0-16.78,4.07-24,13.93-24,8.7,0,12.16,7.3,12.52,14.67Zm-5.14,16.66c0,2.55,1.17,3.68,3,3.68s3-1.13,3-3.68c0-2.31-1.22-3.56-3-3.56S411.45,70.07,411.45,72.38Z"/><path class="cls-2" d="M238.45,22.09H229V0h9.18c3.59,0,5.9,1.9,5.9,5.74,0,2.65-1.24,4.46-3,5,2.21.65,3.43,2.8,3.43,5.27C244.5,19.91,242.36,22.09,238.45,22.09Zm-1.61-16.6h-2.18V8.61h2.18c1,0,1.5-.47,1.5-1.53S237.86,5.49,236.84,5.49Zm.39,7.93h-2.57v3.12h2.57c1,0,1.5-.44,1.5-1.53S238.24,13.42,237.23,13.42Z"/><path class="cls-2" d="M253.23,22.31c-4.33,0-7.58-3.4-7.58-9s3.25-9,7.58-9,7.58,3.4,7.58,9S257.55,22.31,253.23,22.31Zm0-6c1,0,1.85-.94,1.85-3s-.86-3-1.85-3-1.86.93-1.86,3S252.21,16.32,253.23,16.32Z"/><path class="cls-2" d="M268.24,22.09h-5.65V4.49h5.65V7.74c1.12-2,2.85-3.37,4.7-3.37v7.39h-1.6c-2,0-3.1.72-3.1,3.12Z"/><path class="cls-2" d="M284.14,12.76c0-1.68-.79-2.71-2-2.71s-2,1-2,2.71v9.33h-5.65V4.49h5.65V7.18a4.88,4.88,0,0,1,4.4-2.81c3.3,0,5.24,3,5.24,7.52v10.2h-5.62Z"/><path class="cls-2" d="M296.53,4.49h5.64v17.6h-5.64Z"/><path class="cls-2" d="M314.38,12.76c0-1.68-.78-2.71-2-2.71s-2,1-2,2.71v9.33h-5.65V4.49h5.65V7.18a4.87,4.87,0,0,1,4.4-2.81c3.3,0,5.24,3,5.24,7.52v10.2h-5.63Z"/><path class="cls-2" d="M325.76,0h15.16V5.49h-4.79v16.6h-5.64V5.49h-4.73Z"/><path class="cls-2" d="M349.26,22.31c-4.32,0-7.58-3.4-7.58-9s3.26-9,7.58-9,7.58,3.4,7.58,9S353.59,22.31,349.26,22.31Zm0-6c1,0,1.86-.94,1.86-3s-.87-3-1.86-3-1.85.93-1.85,3S348.24,16.32,349.26,16.32Z"/><path class="cls-2" d="M364.27,22.09h-5.65V4.49h5.65V7.74c1.12-2,2.85-3.37,4.71-3.37v7.39h-1.6c-2,0-3.11.72-3.11,3.12Z"/><path class="cls-2" d="M377.32,22.31c-4.32,0-7.58-3.4-7.58-9s3.26-9,7.58-9,7.58,3.4,7.58,9S381.65,22.31,377.32,22.31Zm0-6c1,0,1.86-.94,1.86-3s-.87-3-1.86-3-1.85.93-1.85,3S376.3,16.32,377.32,16.32Z"/><path class="cls-2" d="M396.35,12.76c0-1.68-.79-2.71-2-2.71s-2,1-2,2.71v9.33h-5.64V4.49h5.64V7.18a4.89,4.89,0,0,1,4.4-2.81c3.31,0,5.24,3,5.24,7.52v10.2h-5.62Z"/><path class="cls-2" d="M405.31,10.27h-1.78V4.49h1.78V.25H411V4.49h2.34v5.78H411V15c0,.81.31,1.19,1.05,1.19h1.34v5.89h-2.13c-3.36,0-5.9-1.74-5.9-7.21Z"/><path class="cls-2" d="M422.33,22.31c-4.33,0-7.58-3.4-7.58-9s3.25-9,7.58-9,7.58,3.4,7.58,9S426.65,22.31,422.33,22.31Zm0-6c1,0,1.85-.94,1.85-3s-.86-3-1.85-3-1.86.93-1.86,3S421.31,16.32,422.33,16.32Z"/></g></g></g></svg>