<svg xmlns="http://www.w3.org/2000/svg" viewBox="0 0 435.58 92.68"><defs><style>.cls-1{fill:none;stroke:#000;}.cls-2{fill:#4a82dd;}</style></defs><title>degrassi</title><g id="Layer_2" data-name="Layer 2"><g id="headings"><g id="desrassi"><path class="cls-1" d="M13.2,78.14C6.33,78.14,1,74.24.53,66h10c.17,2.7,1.36,3.17,2.29,3.17a1.69,1.69,0,0,0,1.83-1.82c-.05-5-14.21-3.17-14-15.76,0-7.38,5.09-11.23,11.49-11.23,7.25,0,11.92,4.26,12.17,11.91H14.14c-.09-2.24-1.06-2.91-2.08-2.91-.76,0-1.36.62-1.36,1.87,0,4.63,14,3.85,14,15.18C24.65,73.14,20.46,78.14,13.2,78.14Z"/><path class="cls-1" d="M29.44,58.06h-3V48.44h3V41.37h9.42v7.07h3.9v9.62h-3.9V66c0,1.35.51,2,1.74,2h2.24v9.83H39.28c-5.6,0-9.84-2.91-9.84-12Z"/><path class="cls-1" d="M55.05,48.08a6.91,6.91,0,0,1,6.62,4.37v-4H71V77.77H61.67v-4a6.92,6.92,0,0,1-6.62,4.37c-5.51,0-9.88-5.57-9.88-15S49.54,48.08,55.05,48.08Zm3.14,10.09c-1.95,0-3.48,1.71-3.48,4.94s1.53,4.94,3.48,4.94,3.48-1.72,3.48-4.94S60.14,58.17,58.19,58.17Z"/><path class="cls-1" d="M84.69,77.77H75.28V48.44h9.41v5.41c1.87-3.28,4.75-5.62,7.85-5.62V60.56H89.86c-3.39,0-5.17,1.19-5.17,5.2Z"/><path class="cls-1" d="M104.49,77.77H95.08V48.44h9.41v5.41c1.87-3.28,4.75-5.62,7.85-5.62V60.56h-2.68c-3.39,0-5.17,1.19-5.17,5.2Z"/><path class="cls-1" d="M125.82,78.14c-7.17,0-12.21-5.67-12.21-15s5-15,12.21-15S138,53.64,138,62.85a19.24,19.24,0,0,1-.13,2.28H122.81c.12,3,1.27,3.8,2.54,3.8a2.32,2.32,0,0,0,2.21-1.72h10C136.5,73.46,131.84,78.14,125.82,78.14Zm-2.93-18h5.6a2.64,2.64,0,0,0-2.67-3C124.25,57.13,123.19,58.06,122.89,60.09Z"/><path class="cls-1" d="M149.6,48.08a6.85,6.85,0,0,1,6.58,4.37V39.29h9.41V77.77h-9.41v-4a6.87,6.87,0,0,1-6.58,4.37c-5.51,0-9.88-5.57-9.88-15S144.09,48.08,149.6,48.08Zm3.14,10.09c-2,0-3.48,1.71-3.48,4.94s1.53,4.94,3.48,4.94,3.48-1.72,3.48-4.94S154.69,58.17,152.74,58.17Z"/><path class="cls-1" d="M188.4,78.14c-7.21,0-12.64-5.67-12.64-15s5.43-15,12.64-15S201,53.75,201,63.11,195.61,78.14,188.4,78.14Zm0-10c1.65,0,3.1-1.56,3.1-5s-1.45-5-3.1-5-3.1,1.56-3.1,5S186.7,68.15,188.4,68.15Z"/><path class="cls-1" d="M220.12,62.22c0-2.8-1.32-4.52-3.36-4.52s-3.35,1.72-3.35,4.52V77.77H204V48.44h9.41v4.48a8.15,8.15,0,0,1,7.34-4.69c5.51,0,8.74,4.94,8.74,12.54v17h-9.37Z"/><path class="cls-1" d="M268.88,59.26c0,10.5-6,18.51-15.61,18.51H240.76V41h12.51C262.85,41,268.88,48.65,268.88,59.26Zm-16.46,8.22c4.16,0,6.91-2.86,6.91-8.22S256.58,51,252.42,51h-2.24V67.48Z"/><path class="cls-1" d="M283.2,78.14c-7.16,0-12.21-5.67-12.21-15s5.05-15,12.21-15,12.22,5.56,12.22,14.77a21.63,21.63,0,0,1-.13,2.28h-15.1c.13,3,1.28,3.8,2.55,3.8a2.31,2.31,0,0,0,2.2-1.72h10C293.89,73.46,289.23,78.14,283.2,78.14Zm-2.92-18h5.6a2.65,2.65,0,0,0-2.68-3C281.64,57.13,280.58,58.06,280.28,60.09Z"/><path class="cls-1" d="M307,48.08a6.91,6.91,0,0,1,6.62,4.37v-4H323V77.25c0,7.75-3.27,14.93-12.22,14.93-7.8,0-12.34-4.84-13-12.28H307c.26,1.51,1.32,2.29,3.06,2.29,1.91,0,3.52-.83,3.52-4.94V73.77A6.92,6.92,0,0,1,307,78.14c-5.51,0-9.88-5.57-9.88-15S301.48,48.08,307,48.08Zm3.14,10.09c-1.95,0-3.48,1.71-3.48,4.94s1.53,4.94,3.48,4.94,3.48-1.72,3.48-4.94S312.08,58.17,310.13,58.17Z"/><path class="cls-1" d="M336.63,77.77h-9.42V48.44h9.42v5.41c1.86-3.28,4.75-5.62,7.84-5.62V60.56H341.8c-3.39,0-5.17,1.19-5.17,5.2Z"/><path class="cls-1" d="M355.62,48.08a6.91,6.91,0,0,1,6.62,4.37v-4h9.37V77.77h-9.37v-4a6.92,6.92,0,0,1-6.62,4.37c-5.51,0-9.88-5.57-9.88-15S350.11,48.08,355.62,48.08Zm3.14,10.09c-1.95,0-3.48,1.71-3.48,4.94s1.53,4.94,3.48,4.94,3.48-1.72,3.48-4.94S360.71,58.17,358.76,58.17Z"/><path class="cls-1" d="M386.49,78.14c-6.91,0-11.45-4.53-11.87-10.51h9a2.63,2.63,0,0,0,2.8,2.55A1.42,1.42,0,0,0,388,68.83c0-3.85-12.34-.32-12.34-11.08,0-5.3,3.43-9.67,10.17-9.67s10.18,4.73,10.86,10.5h-8.35a2.63,2.63,0,0,0-2.72-2.49c-.93,0-1.48.46-1.48,1.35,0,3.64,12.51.26,12.51,11.54C396.67,74.18,392.85,78.14,386.49,78.14Z"/><path class="cls-1" d="M411,78.14c-6.91,0-11.45-4.53-11.87-10.51h9a2.63,2.63,0,0,0,2.8,2.55,1.42,1.42,0,0,0,1.57-1.35c0-3.85-12.34-.32-12.34-11.08,0-5.3,3.43-9.67,10.17-9.67s10.18,4.73,10.86,10.5h-8.35a2.63,2.63,0,0,0-2.72-2.49c-.93,0-1.48.46-1.48,1.35,0,3.64,12.51.26,12.51,11.54C421.22,74.18,417.4,78.14,411,78.14Z"/><path class="cls-1" d="M424.27,40.43c0-3.22,2.07-5.77,5.42-5.77s5.39,2.55,5.39,5.77S433,46.1,429.69,46.1,424.27,43.61,424.27,40.43Zm.68,8h9.41V77.77H425Z"/><path class="cls-2" d="M.11,17.79C3.7,14.48,7.49,10.64,7.49,7.36c0-1-.38-1.56-1-1.56s-1.12.75-1,2.59H0C.21,2.34,3.42,0,6.9,0c4.63,0,6.29,3.21,6.29,6.83,0,4.53-2.8,8.3-5.75,10.58h5.82V23H.11Z"/><path class="cls-2" d="M22.24,0c5.37,0,7.63,4.74,7.63,11.58s-2.26,11.6-7.63,11.6-7.63-4.74-7.63-11.6S16.85,0,22.24,0Zm0,6.55c-1.85,0-2.08,2.19-2.08,5s.23,5,2.08,5,2.06-2.18,2.06-5S24.08,6.55,22.24,6.55Z"/><path class="cls-2" d="M39.08,0c5.37,0,7.63,4.74,7.63,11.58s-2.26,11.6-7.63,11.6-7.63-4.74-7.63-11.6S33.69,0,39.08,0Zm0,6.55c-1.85,0-2.08,2.19-2.08,5s.23,5,2.08,5,2.06-2.18,2.06-5S40.91,6.55,39.08,6.55Z"/><path class="cls-2" d="M50.43,7h-2.7V.5h8.63V23.31H50.43Z"/><path class="cls-2" d="M62.46,9.8H74.32v5.71H62.46Z"/><path class="cls-2" d="M81.65,17.79C85.23,14.48,89,10.64,89,7.36c0-1-.38-1.56-1-1.56s-1.12.75-1,2.59H81.57C81.75,2.34,85,0,88.44,0c4.63,0,6.28,3.21,6.28,6.83,0,4.53-2.8,8.3-5.75,10.58H94.8V23H81.65Z"/><path class="cls-2" d="M103.78,0c5.36,0,7.63,4.74,7.63,11.58s-2.27,11.6-7.63,11.6-7.63-4.74-7.63-11.6S98.38,0,103.78,0Zm0,6.55c-1.86,0-2.09,2.19-2.09,5s.23,5,2.09,5,2.06-2.18,2.06-5S105.61,6.55,103.78,6.55Z"/><path class="cls-2" d="M120.62,0c5.37,0,7.63,4.74,7.63,11.58s-2.26,11.6-7.63,11.6S113,18.44,113,11.58,115.23,0,120.62,0Zm0,6.55c-1.86,0-2.09,2.19-2.09,5s.23,5,2.09,5,2.06-2.18,2.06-5S122.45,6.55,120.62,6.55Z"/><path class="cls-2" d="M141.78.5V5.59L136,23.31h-5.8L136,6.43h-6.56V.5Z"/></g></g></g></svg>