<svg xmlns="http://www.w3.org/2000/svg" viewBox="0 0 389.13 228.48"><defs><style>.cls-1,.cls-2{fill:#e0b93d;}.cls-2{font-size:36px;font-family:Poppins-Black, Poppins;font-weight:800;}</style></defs><title>grammys</title><g id="Layer_2" data-name="Layer 2"><g id="headings"><g id="grammys"><path class="cls-1" d="M87.64,176.4H0V124.6L83.44,5.6h66.92v117h20.16V176.4H150.36v30.8H87.64Zm5-53.76V76.44l-30.24,46.2Z"/><text class="cls-2" transform="translate(191.69 205.91)">Grammys</text><path class="cls-1" d="M336.14,122.91a16.47,16.47,0,0,0,11.69-28.06l-6.66-7a6.55,6.55,0,0,0-.58-.6l-69.93-73,2.43-5.85a6.07,6.07,0,1,0-11.22-4.66L258,13.17l0,.05L226.27,89.37v0l-4,9.54a6.07,6.07,0,1,0,11.22,4.66l2.4-5.77h97.94l5.24,5.47.09.09a4.32,4.32,0,0,1-3.05,7.37H323.49v-.07a6.08,6.08,0,0,0-6.07-6.08H260.56a6.08,6.08,0,0,0-6.08,6.08v25.74l-21.76,18.94a6.08,6.08,0,0,0,4,10.66H341.27a6.08,6.08,0,0,0,4-10.66l-21.77-18.94V122.91ZM241,85.67l24.6-59.15,56.65,59.15Zm70.37,31.1v16.35h-44.7V116.77Zm-58.4,37.11,9.89-8.61h52.31l9.89,8.61Z"/></g></g></g></svg>