<svg xmlns="http://www.w3.org/2000/svg" viewBox="0 0 1051 481.1"><defs><style>.cls-1{fill:#e0b93d;}.cls-10,.cls-2{font-size:24px;}.cls-2{fill:#fff;}.cls-11,.cls-2{font-family:Poppins-Regular, Poppins;}.cls-3{fill:#e23b50;}.cls-4{fill:#e5e01a;}.cls-5{fill:#6fdb4b;}.cls-6{fill:#4a82dd;}.cls-7,.cls-8{fill:none;stroke:#000;}.cls-8{stroke-linecap:square;stroke-miterlimit:10;}.cls-9{fill:#db4b4b;}.cls-10{font-family:Poppins-Black, Poppins;font-weight:800;}.cls-11{font-size:18px;}</style></defs><title>Asset 5</title><g id="Layer_2" data-name="Layer 2"><g id="headings"><g id="graph"><g id="bars"><g id="_2015_bar" data-name="2015 bar"><rect class="cls-1" x="83" y="311" width="269" height="43" rx="5"/><text class="cls-2" transform="translate(104 340.65)">2015 - $39.5</text></g><g id="_2016_bar" data-name="2016 bar"><rect class="cls-3" x="83" y="240.85" width="422" height="43" rx="5"/><text class="cls-2" transform="translate(104 270.5)">2016 - $60</text></g><g id="_2017_bar" data-name="2017 bar"><rect class="cls-4" x="83" y="170.7" width="669" height="43" rx="5"/><text class="cls-2" transform="translate(104 200.35)">2017 - $94 </text></g><g id="_2018_bar" data-name="2018 bar"><rect class="cls-5" x="83" y="100.55" width="334" height="43" rx="5"/><text class="cls-2" transform="translate(104 130.35)">2018 - $47</text></g><g id="_2019_bar" data-name="2019 bar"><rect class="cls-6" x="83" y="30.4" width="809" height="43" rx="5"/><text class="cls-2" transform="translate(104 60.35)">2019 - $150</text></g></g><g id="graph_numbers" data-name="graph &amp; numbers"><g id="main_lines" data-name="main lines"><line class="cls-7" x1="973" y1="429.5" x2="73" y2="429.5"/><line class="cls-7" x1="12" y1="0.5" x2="1051" y2="0.5"/><line id="under_line" data-name="under line" class="cls-8" x1="0.5" y1="475" x2="1050.5" y2="475"/></g><g id="numbers"><g id="_0" data-name="0"><rect class="cls-9" x="74.03" y="403" width="3" height="26"/><text class="cls-10" transform="translate(67.59 400.18)">0</text></g><g id="_20" data-name="20"><rect class="cls-9" x="210.7" y="403" width="3" height="26"/><text class="cls-10" transform="translate(197.47 400.18)">20</text></g><g id="_20-2" data-name="20"><rect class="cls-9" x="357.18" y="403" width="3" height="26"/><text class="cls-10" transform="translate(342.29 400.18)">40</text></g><g id="_40" data-name="40"><rect class="cls-9" x="503.66" y="403" width="3" height="26"/><text class="cls-10" transform="translate(489.62 400.18)">60</text></g><g id="_60" data-name="60"><rect class="cls-9" x="649.14" y="403" width="3" height="26"/><text class="cls-10" transform="translate(635.82 400.18)">80</text></g><g id="_80" data-name="80"><rect class="cls-9" x="796.62" y="403" width="3" height="26"/><text class="cls-10" transform="translate(777.45 400.18)">100</text></g><g id="_100" data-name="100"><text class="cls-10" transform="translate(934.82 400.18)">200</text><rect class="cls-9" x="970" y="403" width="3" height="26"/></g></g><text class="cls-11" transform="translate(341.31 457.4)">Yearly income by millions, 2019-2015</text></g></g></g></g></svg>