<svg xmlns="http://www.w3.org/2000/svg" viewBox="0 0 437.47 95.51"><defs><style>.cls-1{fill:none;stroke:#000;}.cls-2{fill:#e0b93d;}</style></defs><title>mixtape</title><g id="Layer_2" data-name="Layer 2"><g id="headings"><g id="debut_mixtape" data-name="debut mixtape"><path class="cls-1" d="M13.09,49.24c6.8,0,10.27,4.77,10.27,10.85,0,4.36-2,8-5.84,9.6L23.4,82.37H14.09L9,70.48H9V82.37H.5V49.24Zm-.76,8.7H9v5.62h3.36c1.6,0,2.44-.85,2.44-2.81C14.77,59.06,13.93,57.94,12.33,57.94Z"/><path class="cls-1" d="M36.29,82.7c-6.48,0-11.37-5.1-11.37-13.53s4.89-13.52,11.37-13.52,11.38,5.1,11.38,13.52S42.78,82.7,36.29,82.7Zm0-9c1.49,0,2.79-1.4,2.79-4.54s-1.3-4.54-2.79-4.54S33.51,66,33.51,69.17,34.77,73.71,36.29,73.71Z"/><path class="cls-1" d="M60.56,82.7c-6.48,0-11.37-5.1-11.37-13.53s4.89-13.52,11.37-13.52,11.38,5.1,11.38,13.52S67.05,82.7,60.56,82.7Zm0-9c1.49,0,2.79-1.4,2.79-4.54s-1.3-4.54-2.79-4.54S57.78,66,57.78,69.17,59,73.71,60.56,73.71Z"/><path class="cls-1" d="M103.57,68.38c0-2.25-1.18-3.61-3-3.61s-3,1.36-3,3.61v14H89.11v-14c0-2.25-1.19-3.61-3-3.61s-3,1.36-3,3.61v14H74.6V56h8.48v3.55a6.92,6.92,0,0,1,6.22-3.74,7.52,7.52,0,0,1,7,4.72c1.45-2.52,3.89-4.72,7.06-4.72,5.57,0,8.66,4.44,8.66,11.28v15.3h-8.43Z"/><path class="cls-1" d="M122.92,64.63h-2.29V56h2.29c.07-7.49,4.35-11.52,11.63-10.72V54.1c-1.94-.28-2.82.19-3.09,1.88h3.09v8.65h-3.16V82.37h-8.47Z"/><path class="cls-1" d="M147.07,82.7c-6.49,0-11.37-5.1-11.37-13.53s4.88-13.52,11.37-13.52,11.37,5.1,11.37,13.52S153.56,82.7,147.07,82.7Zm0-9c1.49,0,2.79-1.4,2.79-4.54s-1.3-4.54-2.79-4.54-2.79,1.41-2.79,4.54S145.54,73.71,147.07,73.71Z"/><path class="cls-1" d="M169.58,82.37h-8.47V56h8.47v4.86c1.68-3,4.28-5.05,7.06-5.05V66.88h-2.4c-3.05,0-4.66,1.08-4.66,4.68Z"/><path class="cls-1" d="M185.42,49.24h8.47V82.37h-8.47Z"/><path class="cls-1" d="M226.67,68.38c0-2.25-1.18-3.61-3-3.61s-3,1.36-3,3.61v14h-8.43v-14c0-2.25-1.18-3.61-3-3.61s-3,1.36-3,3.61v14h-8.47V56h8.47v3.55a6.92,6.92,0,0,1,6.22-3.74,7.52,7.52,0,0,1,7,4.72c1.45-2.52,3.9-4.72,7.06-4.72,5.57,0,8.67,4.44,8.67,11.28v15.3h-8.44Z"/><path class="cls-1" d="M253.15,55.65c5,0,8.9,5,8.9,13.52s-3.94,13.53-8.9,13.53a6.17,6.17,0,0,1-5.91-3.93V95h-8.47V56h8.47v3.6A6.15,6.15,0,0,1,253.15,55.65Zm-2.82,9.08c-1.76,0-3.13,1.54-3.13,4.44s1.37,4.45,3.13,4.45,3.13-1.55,3.13-4.45S252.08,64.73,250.33,64.73Z"/><path class="cls-1" d="M273.19,82.37h-8.47V56h8.47v4.86c1.68-3,4.27-5.05,7.06-5.05V66.88h-2.41c-3,0-4.65,1.08-4.65,4.68Z"/><path class="cls-1" d="M292.76,82.7c-6.48,0-11.37-5.1-11.37-13.53s4.89-13.52,11.37-13.52,11.38,5.1,11.38,13.52S299.25,82.7,292.76,82.7Zm0-9c1.49,0,2.79-1.4,2.79-4.54s-1.3-4.54-2.79-4.54S290,66,290,69.17,291.24,73.71,292.76,73.71Z"/><path class="cls-1" d="M314.25,56l3.47,16.52L321.15,56h9L323,82.37H312.41L305.24,56Z"/><path class="cls-1" d="M361.37,68.38c0-2.25-1.18-3.61-3-3.61s-3,1.36-3,3.61v14h-8.44v-14c0-2.25-1.18-3.61-3-3.61s-3,1.36-3,3.61v14h-8.47V56h8.47v3.55a6.94,6.94,0,0,1,6.22-3.74,7.54,7.54,0,0,1,7,4.72c1.45-2.52,3.89-4.72,7.06-4.72,5.57,0,8.66,4.44,8.66,11.28v15.3h-8.44Z"/><path class="cls-1" d="M383.31,82.7c-6.44,0-11-5.1-11-13.53s4.55-13.52,11-13.52,11,5,11,13.29a17.92,17.92,0,0,1-.12,2.06H380.61c.11,2.67,1.14,3.41,2.29,3.41a2.09,2.09,0,0,0,2-1.54h9C392.93,78.49,388.73,82.7,383.31,82.7Zm-2.63-16.24h5a2.39,2.39,0,0,0-2.41-2.67C381.9,63.79,381,64.63,380.68,66.46Z"/><path class="cls-1" d="M411.48,68.38c0-2.53-1.19-4.07-3-4.07s-3,1.54-3,4.07v14H397V56h8.47v4a7.33,7.33,0,0,1,6.6-4.21c5,0,7.86,4.44,7.86,11.28v15.3h-8.43Z"/><path class="cls-1" d="M424.91,64.63h-2.67V56h2.67V49.61h8.47V56h3.51v8.65h-3.51v7.12c0,1.21.46,1.78,1.56,1.78h2v8.84h-3.21c-5,0-8.85-2.62-8.85-10.81Z"/><path class="cls-2" d="M199.18,14.76c0,6.3-3.61,11.11-9.36,11.11h-7.51V3.78h7.51C195.57,3.78,199.18,8.39,199.18,14.76Zm-9.87,4.93c2.49,0,4.14-1.72,4.14-4.93s-1.65-4.93-4.14-4.93H188v9.86Z"/><path class="cls-2" d="M207.78,26.09c-4.3,0-7.33-3.4-7.33-9s3-9,7.33-9,7.32,3.34,7.32,8.86a12.75,12.75,0,0,1-.07,1.38H206c.08,1.77.76,2.27,1.53,2.27a1.38,1.38,0,0,0,1.32-1h6C214.19,23.28,211.39,26.09,207.78,26.09ZM206,15.26h3.36a1.59,1.59,0,0,0-1.6-1.78C206.84,13.48,206.2,14,206,15.26Z"/><path class="cls-2" d="M226.48,8.05c3.3,0,5.92,3.34,5.92,9s-2.62,9-5.92,9a4.12,4.12,0,0,1-3.95-2.62v2.4h-5.64V2.78h5.64v7.89A4.12,4.12,0,0,1,226.48,8.05Zm-1.89,6c-1.17,0-2.08,1-2.08,3s.91,3,2.08,3,2.09-1,2.09-3S225.76,14.1,224.59,14.1Z"/><path class="cls-2" d="M249.37,25.87h-5.65V23.18a4.87,4.87,0,0,1-4.4,2.81c-3.3,0-5.24-3-5.24-7.52V8.27h5.62V17.6c0,1.68.79,2.71,2,2.71s2-1,2-2.71V8.27h5.65Z"/><path class="cls-2" d="M252.81,14H251V8.27h1.78V4h5.64V8.27h2.34V14h-2.34v4.75c0,.81.31,1.18,1.05,1.18h1.34v5.9h-2.13c-3.36,0-5.9-1.75-5.9-7.21Z"/><path class="cls-2" d="M267.33,3.78h6.92l4,13.26,3.87-13.26H289V25.87h-5.62v-11l-2.77,11h-4.84l-2.77-11v11h-5.65Z"/><path class="cls-2" d="M291.12,3.46a3.25,3.25,0,1,1,6.49,0,3.25,3.25,0,1,1-6.49,0Zm.41,4.81h5.64v17.6h-5.64Z"/><path class="cls-2" d="M306.71,21.91l-1.8,4H298.7l4.81-9.27-5.06-8.33h6.3l2.42,4,1.83-4h6.21l-5,9.05,5.19,8.55h-6.31Z"/><path class="cls-2" d="M317.6,14h-1.78V8.27h1.78V4h5.65V8.27h2.34V14h-2.34v4.75c0,.81.3,1.18,1,1.18h1.35v5.9H323.5c-3.35,0-5.9-1.75-5.9-7.21Z"/><path class="cls-2" d="M333,8.05a4.13,4.13,0,0,1,4,2.62V8.27h5.63v17.6h-5.63v-2.4a4.13,4.13,0,0,1-4,2.62c-3.31,0-5.93-3.34-5.93-9S329.66,8.05,333,8.05Zm1.88,6c-1.17,0-2.09,1-2.09,3s.92,3,2.09,3,2.08-1,2.08-3S336,14.1,334.85,14.1Z"/><path class="cls-2" d="M354.69,8.05c3.31,0,5.93,3.34,5.93,9s-2.62,9-5.93,9a4.11,4.11,0,0,1-3.94-2.62V34.29H345.1v-26h5.65v2.4A4.11,4.11,0,0,1,354.69,8.05Zm-1.88,6c-1.17,0-2.09,1-2.09,3s.92,3,2.09,3,2.09-1,2.09-3S354,14.1,352.81,14.1Z"/><path class="cls-2" d="M363.42,19.47H369l-3.35,11.42h-3.72Z"/><path class="cls-2" d="M375,20.34c3.59-3.3,7.38-7.14,7.38-10.42,0-1-.39-1.56-1-1.56s-1.12.75-1,2.59h-5.47c.18-6,3.39-8.39,6.87-8.39,4.63,0,6.28,3.21,6.28,6.83,0,4.53-2.8,8.3-5.75,10.58h5.83v5.59H375Z"/><path class="cls-2" d="M397.15,2.56c5.37,0,7.63,4.74,7.63,11.58s-2.26,11.6-7.63,11.6-7.63-4.74-7.63-11.6S391.76,2.56,397.15,2.56Zm0,6.55c-1.86,0-2.09,2.19-2.09,5s.23,5.05,2.09,5.05,2.06-2.18,2.06-5.05S399,9.11,397.15,9.11Z"/><path class="cls-2" d="M414,2.56c5.37,0,7.63,4.74,7.63,11.58s-2.26,11.6-7.63,11.6-7.63-4.74-7.63-11.6S408.6,2.56,414,2.56Zm0,6.55c-1.86,0-2.08,2.19-2.08,5s.22,5.05,2.08,5.05,2.06-2.18,2.06-5.05S415.82,9.11,414,9.11Z"/><path class="cls-2" d="M431.67,10c-.18-1.19-.51-1.81-1.35-1.81-1.37,0-1.6,1.9-1.6,4.93A3.64,3.64,0,0,1,432,11.23c3.16,0,5.37,2.41,5.37,7.18s-2.52,7.68-6.56,7.68c-5.75,0-7.1-5-7.1-11.46,0-8.39,2-12,7-12,4.35,0,6.08,3.65,6.26,7.34Zm-2.57,8.33c0,1.28.59,1.84,1.5,1.84s1.5-.56,1.5-1.84-.61-1.78-1.5-1.78S429.1,17.16,429.1,18.32Z"/></g></g></g></svg>