<svg xmlns="http://www.w3.org/2000/svg" viewBox="0 0 116.7 56.51"><defs><style>.cls-1,.cls-2{fill-rule:evenodd;}.cls-2{fill:#fff;}</style></defs><title>ovo</title><g id="Layer_2" data-name="Layer 2"><g id="headings"><g id="title"><g id="ovo"><path class="cls-1" d="M0,28.4A24.08,24.08,0,1,0,24.08,4.31,24.11,24.11,0,0,0,0,28.4Zm68.54,0A24.08,24.08,0,1,0,92.62,4.31,24.11,24.11,0,0,0,68.54,28.4Z"/><path class="cls-1" d="M30.52,0,58.35,56.51,86.18,0Z"/><path class="cls-2" d="M66.46,5.65,58.35,22.11,50.24,5.65H39.59L58.35,43.73,77.11,5.65ZM42.52,28.4A18.44,18.44,0,1,1,24.08,10,18.44,18.44,0,0,1,42.52,28.4Zm31.66,0A18.44,18.44,0,1,0,92.62,10,18.43,18.43,0,0,0,74.18,28.4Z"/><path class="cls-1" d="M100.72,28.4a8.1,8.1,0,1,1-8.1-8.11,8.1,8.1,0,0,1,8.1,8.11Zm-68.54,0a8.1,8.1,0,1,1-8.1-8.11,8.1,8.1,0,0,1,8.1,8.11Z"/></g></g></g></g></svg>