<svg xmlns="http://www.w3.org/2000/svg" viewBox="0 0 403.7 152.31"><defs><style>.cls-1{fill:none;stroke:#000;}.cls-2{fill:#6fdb4b;}</style></defs><title>record</title><g id="Layer_2" data-name="Layer 2"><g id="headings"><g id="desrassi"><path class="cls-1" d="M1.42,41H13l6.61,22.1L26,41H37.51V77.77H28.14V59.42L23.52,77.77H15.46L10.84,59.42V77.77H1.42Z"/><path class="cls-1" d="M53.11,78.14c-7.21,0-12.64-5.67-12.64-15s5.43-15,12.64-15,12.64,5.67,12.64,15S60.32,78.14,53.11,78.14Zm0-10c1.65,0,3.1-1.56,3.1-5s-1.45-5-3.1-5-3.1,1.56-3.1,5S51.41,68.15,53.11,68.15Z"/><path class="cls-1" d="M79.35,78.14c-6.91,0-11.44-4.53-11.87-10.51h9a2.64,2.64,0,0,0,2.8,2.55,1.41,1.41,0,0,0,1.57-1.35c0-3.85-12.34-.32-12.34-11.08,0-5.3,3.44-9.67,10.18-9.67s10.18,4.73,10.85,10.5H81.22a2.62,2.62,0,0,0-2.71-2.49c-.94,0-1.49.46-1.49,1.35,0,3.64,12.51.26,12.51,11.54C89.53,74.18,85.72,78.14,79.35,78.14Z"/><path class="cls-1" d="M94.75,58.06h-3V48.44h3V41.37h9.41v7.07h3.9v9.62h-3.9V66c0,1.35.51,2,1.74,2h2.24v9.83h-3.56c-5.59,0-9.83-2.91-9.83-12Z"/><path class="cls-1" d="M137.83,71.32h-5.9l-1.1,6.45h-8.7l1.11-6.45h-6V60.82h7.84l.85-4.94h-5.81V45.37h7.63l1.06-6.08h8.7l-1.06,6.08h5.89l1.06-6.08h8.74l-1.06,6.08H156V55.88h-6.7l-.84,4.94h4.66v10.5h-6.53l-1.1,6.45h-8.74Zm2.71-15.44h-5.9l-.84,4.94h5.89Z"/><path class="cls-1" d="M161.31,50.57h-4.49V39.76h14.37v38h-9.88Z"/><path class="cls-1" d="M193.28,78.14c-6.91,0-11.45-4.53-11.87-10.51h9a2.63,2.63,0,0,0,2.8,2.55,1.41,1.41,0,0,0,1.57-1.35c0-3.85-12.34-.32-12.34-11.08,0-5.3,3.43-9.67,10.18-9.67s10.17,4.73,10.85,10.5h-8.35a2.63,2.63,0,0,0-2.72-2.49c-.93,0-1.48.46-1.48,1.35,0,3.64,12.51.26,12.51,11.54C203.46,74.18,199.64,78.14,193.28,78.14Z"/><path class="cls-1" d="M206.51,40.43c0-3.22,2.08-5.77,5.43-5.77s5.38,2.55,5.38,5.77-2.07,5.67-5.38,5.67S206.51,43.61,206.51,40.43Zm.68,8h9.41V77.77h-9.41Z"/><path class="cls-1" d="M237,62.22c0-2.8-1.31-4.52-3.35-4.52s-3.35,1.72-3.35,4.52V77.77h-9.41V48.44h9.41v4.48a8.15,8.15,0,0,1,7.34-4.69c5.51,0,8.74,4.94,8.74,12.54v17H237Z"/><path class="cls-1" d="M259,48.08a6.91,6.91,0,0,1,6.62,4.37v-4H275V77.25c0,7.75-3.27,14.93-12.22,14.93-7.8,0-12.34-4.84-13-12.28H259c.26,1.51,1.32,2.29,3.06,2.29,1.9,0,3.52-.83,3.52-4.94V73.77A6.92,6.92,0,0,1,259,78.14c-5.51,0-9.88-5.57-9.88-15S253.49,48.08,259,48.08Zm3.14,10.09c-1.95,0-3.48,1.71-3.48,4.94s1.53,4.94,3.48,4.94,3.48-1.72,3.48-4.94S264.09,58.17,262.14,58.17Z"/><path class="cls-1" d="M279.22,39.29h9.42V77.77h-9.42Z"/><path class="cls-1" d="M303.82,78.14c-7.17,0-12.22-5.67-12.22-15s5-15,12.22-15S316,53.64,316,62.85a19.24,19.24,0,0,1-.13,2.28H300.81c.12,3,1.27,3.8,2.54,3.8a2.32,2.32,0,0,0,2.21-1.72h10C314.5,73.46,309.84,78.14,303.82,78.14Zm-2.93-18h5.6a2.64,2.64,0,0,0-2.67-3C302.25,57.13,301.19,58.06,300.89,60.09Z"/><path class="cls-1" d="M329.64,78.14c-6.91,0-11.45-4.53-11.88-10.51h9a2.63,2.63,0,0,0,2.8,2.55,1.42,1.42,0,0,0,1.57-1.35c0-3.85-12.34-.32-12.34-11.08,0-5.3,3.43-9.67,10.17-9.67s10.18,4.73,10.86,10.5H331.5a2.62,2.62,0,0,0-2.71-2.49c-.93,0-1.48.46-1.48,1.35,0,3.64,12.51.26,12.51,11.54C339.82,74.18,336,78.14,329.64,78.14Z"/><path class="cls-1" d="M362.12,78.14c-7.21,0-12.64-5.67-12.64-15s5.43-15,12.64-15,12.63,5.67,12.63,15S369.33,78.14,362.12,78.14Zm0-10c1.65,0,3.09-1.56,3.09-5s-1.44-5-3.09-5-3.1,1.56-3.1,5S360.42,68.15,362.12,68.15Z"/><path class="cls-1" d="M393.83,62.22c0-2.8-1.31-4.52-3.35-4.52s-3.35,1.72-3.35,4.52V77.77h-9.41V48.44h9.41v4.48a8.14,8.14,0,0,1,7.34-4.69c5.51,0,8.73,4.94,8.73,12.54v17h-9.37Z"/><path class="cls-1" d="M17.16,137.77H1.42V101H16.73c6,0,9.84,3.18,9.84,9.57,0,4.42-2.08,7.44-5.05,8.37,3.69,1.1,5.73,4.69,5.73,8.79C27.25,134.13,23.69,137.77,17.16,137.77Zm-2.68-27.66H10.84v5.2h3.64c1.7,0,2.51-.78,2.51-2.55S16.18,110.11,14.48,110.11Zm.64,13.21H10.84v5.19h4.28c1.7,0,2.5-.72,2.5-2.54S16.82,123.32,15.12,123.32Z"/><path class="cls-1" d="M29.75,100.43c0-3.22,2.07-5.77,5.42-5.77s5.39,2.55,5.39,5.77-2.08,5.67-5.39,5.67S29.75,103.61,29.75,100.43Zm.67,8h9.42v29.33H30.42Z"/><path class="cls-1" d="M44.08,99.29h9.41v38.48H44.08Z"/><path class="cls-1" d="M57.73,99.29h9.41v38.48H57.73Z"/><path class="cls-1" d="M87.37,108.08c5.51,0,9.88,5.56,9.88,15s-4.37,15-9.88,15a6.84,6.84,0,0,1-6.57-4.37v4H71.38V99.29H80.8v13.16A6.83,6.83,0,0,1,87.37,108.08Zm-3.14,10.09c-2,0-3.48,1.71-3.48,4.94s1.53,4.94,3.48,4.94,3.48-1.72,3.48-4.94S86.18,118.17,84.23,118.17Z"/><path class="cls-1" d="M111.58,138.14c-7.21,0-12.64-5.67-12.64-15s5.43-15,12.64-15,12.63,5.67,12.63,15S118.79,138.14,111.58,138.14Zm0-10c1.65,0,3.09-1.56,3.09-5s-1.44-5-3.09-5-3.1,1.56-3.1,5S109.88,128.15,111.58,128.15Z"/><path class="cls-1" d="M135.79,108.08a6.88,6.88,0,0,1,6.61,4.37v-4h9.37v29.33H142.4v-4a6.9,6.9,0,0,1-6.61,4.37c-5.52,0-9.88-5.57-9.88-15S130.27,108.08,135.79,108.08Zm3.13,10.09c-1.95,0-3.47,1.71-3.47,4.94s1.52,4.94,3.47,4.94,3.48-1.72,3.48-4.94S140.88,118.17,138.92,118.17Z"/><path class="cls-1" d="M165.42,137.77H156V108.44h9.41v5.41c1.87-3.28,4.75-5.62,7.85-5.62v12.33H170.6c-3.39,0-5.18,1.19-5.18,5.2Z"/><path class="cls-1" d="M184.42,108.08a6.83,6.83,0,0,1,6.57,4.37V99.29h9.42v38.48H191v-4a6.84,6.84,0,0,1-6.57,4.37c-5.51,0-9.88-5.57-9.88-15S178.91,108.08,184.42,108.08Zm3.14,10.09c-1.95,0-3.48,1.71-3.48,4.94s1.53,4.94,3.48,4.94,3.47-1.72,3.47-4.94S189.51,118.17,187.56,118.17Z"/><path class="cls-1" d="M230.21,123.42h-9v14.35h-9.41V101h9.41v13.26h9V101h9.42v36.82h-9.42Z"/><path class="cls-1" d="M243.18,100.43c0-3.22,2.08-5.77,5.43-5.77s5.39,2.55,5.39,5.77-2.08,5.67-5.39,5.67S243.18,103.61,243.18,100.43Zm.68,8h9.42v29.33h-9.42Z"/><path class="cls-1" d="M273.5,108.08c5.51,0,9.88,5.56,9.88,15s-4.37,15-9.88,15a6.84,6.84,0,0,1-6.57-4.37v18h-9.42V108.44h9.42v4A6.83,6.83,0,0,1,273.5,108.08Zm-3.14,10.09c-1.95,0-3.47,1.71-3.47,4.94s1.52,4.94,3.47,4.94,3.48-1.72,3.48-4.94S272.31,118.17,270.36,118.17Z"/><path class="cls-1" d="M285.08,115.25h19.75v9.52H285.08Z"/><path class="cls-1" d="M329.13,123.42h-8.95v14.35h-9.41V101h9.41v13.26h8.95V101h9.41v36.82h-9.41Z"/><path class="cls-1" d="M354.14,138.14c-7.2,0-12.63-5.67-12.63-15s5.43-15,12.63-15,12.64,5.67,12.64,15S361.35,138.14,354.14,138.14Zm0-10c1.66,0,3.1-1.56,3.1-5s-1.44-5-3.1-5-3.09,1.56-3.09,5S352.45,128.15,354.14,128.15Z"/><path class="cls-1" d="M385.73,108.08c5.52,0,9.88,5.56,9.88,15s-4.36,15-9.88,15a6.84,6.84,0,0,1-6.57-4.37v18h-9.41V108.44h9.41v4A6.83,6.83,0,0,1,385.73,108.08Zm-3.14,10.09c-1.95,0-3.47,1.71-3.47,4.94s1.52,4.94,3.47,4.94,3.48-1.72,3.48-4.94S384.55,118.17,382.59,118.17Z"/><path class="cls-2" d="M.08,17.79c3.58-3.31,7.37-7.15,7.37-10.43,0-1-.38-1.56-1-1.56s-1.12.75-1,2.59H0C.18,2.34,3.38,0,6.87,0c4.63,0,6.28,3.21,6.28,6.83,0,4.53-2.8,8.3-5.75,10.58h5.83V23H.08Z"/><path class="cls-2" d="M22.21,0c5.37,0,7.63,4.74,7.63,11.58s-2.26,11.6-7.63,11.6-7.63-4.74-7.63-11.6S16.82,0,22.21,0Zm0,6.55c-1.86,0-2.09,2.19-2.09,5s.23,5,2.09,5,2.06-2.18,2.06-5S24,6.55,22.21,6.55Z"/><path class="cls-2" d="M33.55,7H30.86V.5h8.62V23.31H33.55Z"/><path class="cls-2" d="M41.47,17.79c3.58-3.31,7.37-7.15,7.37-10.43,0-1-.38-1.56-1-1.56s-1.12.75-1,2.59H41.39C41.57,2.34,44.77,0,48.26,0c4.63,0,6.28,3.21,6.28,6.83,0,4.53-2.8,8.3-5.75,10.58h5.83V23H41.47Z"/><path class="cls-2" d="M60,9.8H71.84v5.71H60Z"/><path class="cls-2" d="M89.17,23.31H79.73V1.22h9.18c3.59,0,5.9,1.9,5.9,5.74,0,2.65-1.24,4.46-3,5,2.22.66,3.44,2.81,3.44,5.28C95.22,21.12,93.08,23.31,89.17,23.31ZM87.56,6.71H85.38V9.83h2.18c1,0,1.5-.47,1.5-1.53S88.58,6.71,87.56,6.71Zm.38,7.92H85.38v3.12h2.56c1,0,1.5-.43,1.5-1.52S89,14.63,87.94,14.63Z"/><path class="cls-2" d="M102.78,23.31H97.13V5.71h5.65V9c1.12-2,2.84-3.37,4.7-3.37V13h-1.6c-2,0-3.1.72-3.1,3.12Z"/><path class="cls-2" d="M115.83,23.53c-4.33,0-7.58-3.4-7.58-9s3.25-9,7.58-9,7.58,3.4,7.58,9S120.15,23.53,115.83,23.53Zm0-6c1,0,1.85-.94,1.85-3s-.86-3-1.85-3-1.86.94-1.86,3S114.81,17.54,115.83,17.54Z"/><path class="cls-2" d="M125.19.22h5.65V12.29l3.58-6.58H141l-5.37,8.86,5.49,8.74h-6.74l-3.53-7v7h-5.65Z"/><path class="cls-2" d="M149,23.53c-4.3,0-7.33-3.4-7.33-9s3-9,7.33-9,7.32,3.34,7.32,8.86a12.75,12.75,0,0,1-.07,1.38h-9.06c.08,1.78.77,2.27,1.53,2.27A1.38,1.38,0,0,0,150,17h6C155.36,20.72,152.56,23.53,149,23.53ZM147.19,12.7h3.36a1.59,1.59,0,0,0-1.6-1.78C148,10.92,147.37,11.48,147.19,12.7Z"/><path class="cls-2" d="M170.78,1.22c4.52,0,6.84,3.18,6.84,7.24,0,2.9-1.32,5.36-3.89,6.39l3.91,8.46h-6.2l-3.39-7.93h0v7.93h-5.65V1.22ZM170.27,7H168v3.75h2.24c1.06,0,1.63-.57,1.63-1.88C171.9,7.77,171.33,7,170.27,7Z"/><path class="cls-2" d="M186,23.53c-4.3,0-7.33-3.4-7.33-9s3-9,7.33-9,7.33,3.34,7.33,8.86a12.77,12.77,0,0,1-.08,1.38h-9.06c.08,1.78.77,2.27,1.53,2.27A1.38,1.38,0,0,0,187,17h6C192.4,20.72,189.6,23.53,186,23.53ZM184.23,12.7h3.36a1.59,1.59,0,0,0-1.6-1.78C185.05,10.92,184.41,11.48,184.23,12.7Z"/><path class="cls-2" d="M201.66,5.49c3.69,0,6.46,2.69,7.15,7.3h-6c-.2-.84-.58-1.37-1.3-1.37s-1.47,1-1.47,3.09.61,3.09,1.47,3.09,1.1-.53,1.3-1.37h6c-.69,4.61-3.46,7.3-7.15,7.3-4.3,0-7.33-3.4-7.33-9S197.36,5.49,201.66,5.49Z"/><path class="cls-2" d="M217.41,23.53c-4.33,0-7.58-3.4-7.58-9s3.25-9,7.58-9,7.58,3.4,7.58,9S221.73,23.53,217.41,23.53Zm0-6c1,0,1.85-.94,1.85-3s-.86-3-1.85-3-1.86.94-1.86,3S216.39,17.54,217.41,17.54Z"/><path class="cls-2" d="M232.42,23.31h-5.65V5.71h5.65V9c1.12-2,2.85-3.37,4.7-3.37V13h-1.6c-2,0-3.1.72-3.1,3.12Z"/><path class="cls-2" d="M243.81,5.49a4.12,4.12,0,0,1,3.95,2.62V.22h5.64V23.31h-5.64v-2.4a4.12,4.12,0,0,1-3.95,2.62c-3.3,0-5.92-3.34-5.92-9S240.51,5.49,243.81,5.49Zm1.89,6.06c-1.17,0-2.09,1-2.09,3s.92,3,2.09,3,2.08-1,2.08-3S246.87,11.55,245.7,11.55Z"/></g></g></g></svg>