<svg xmlns="http://www.w3.org/2000/svg" viewBox="0 0 356.34 102.79"><defs><style>.cls-1{fill:none;stroke:#000;}.cls-2{fill:#e23b50;}</style></defs><title>single</title><g id="Layer_2" data-name="Layer 2"><g id="headings"><g id="debut_single" data-name="debut single"><path class="cls-1" d="M14.64,48.08,12.4,66.48H1.21l6-18.4Zm13.74,0-2.24,18.4H15l6-18.4Z"/><path class="cls-1" d="M51.73,92.69c-10.22,0-18.57-9.42-18.57-22.71s8.35-22.65,18.57-22.65S70.2,56.69,70.2,70,61.91,92.69,51.73,92.69Zm0-12.92c4.53,0,7-3.93,7-9.79s-2.49-9.86-7-9.86S44.66,64,44.66,70,47.1,79.77,51.73,79.77Z"/><path class="cls-1" d="M98.54,48.08h12L98.44,92.25H83.84L71.73,48.08h12l7.43,30.38Z"/><path class="cls-1" d="M137.11,59.12H124.39v5.43h11.19V75H124.39v6.24h12.72v11h-24V48.08h24Z"/><path class="cls-1" d="M158.17,48.08c9.06,0,13.69,6.36,13.69,14.47,0,5.8-2.65,10.73-7.79,12.79l7.84,16.91H159.5L152.73,76.4h0V92.25h-11.3V48.08Zm-1,11.6h-4.48v7.49h4.48c2.13,0,3.25-1.13,3.25-3.75C160.41,61.18,159.29,59.68,157.16,59.68Z"/><path class="cls-1" d="M176.19,66.48l2.23-18.4h11.2l-6,18.4Zm13.73,0,2.24-18.4h11.19l-6,18.4Z"/><path class="cls-1" d="M210.48,79.46h11.19L215,102.29h-7.43Z"/><path class="cls-1" d="M242.33,81.21c7.17-6.62,14.75-14.29,14.75-20.84,0-2-.76-3.12-1.93-3.12s-2.24,1.5-2,5.18H242.18c.35-12.11,6.76-16.79,13.73-16.79,9.26,0,12.57,6.43,12.57,13.67,0,9-5.6,16.59-11.5,21.15h11.65V91.63h-26.3Z"/><path class="cls-1" d="M286.59,45.64c10.74,0,15.27,9.49,15.27,23.15S297.33,92,286.59,92s-15.26-9.48-15.26-23.21S275.81,45.64,286.59,45.64Zm0,13.11c-3.71,0-4.17,4.36-4.17,10s.46,10.11,4.17,10.11,4.12-4.37,4.12-10.11S290.26,58.75,286.59,58.75Z"/><path class="cls-1" d="M309.29,59.62h-5.4v-13h17.25V92.25H309.29Z"/><path class="cls-1" d="M340.58,45.64c10.73,0,15.26,9.49,15.26,23.15S351.31,92,340.58,92s-15.27-9.48-15.27-23.21S329.79,45.64,340.58,45.64Zm0,13.11c-3.72,0-4.18,4.36-4.18,10s.46,10.11,4.18,10.11,4.12-4.37,4.12-10.11S344.24,58.75,340.58,58.75Z"/><path class="cls-2" d="M16.87,14.76c0,6.3-3.62,11.11-9.37,11.11H0V3.78H7.5C13.25,3.78,16.87,8.39,16.87,14.76ZM7,19.69c2.49,0,4.14-1.72,4.14-4.93S9.49,9.83,7,9.83H5.65v9.86Z"/><path class="cls-2" d="M25.46,26.09c-4.29,0-7.32-3.4-7.32-9s3-9,7.32-9,7.33,3.34,7.33,8.86a10.64,10.64,0,0,1-.08,1.38h-9c.08,1.77.76,2.27,1.53,2.27a1.4,1.4,0,0,0,1.32-1h6C31.88,23.28,29.08,26.09,25.46,26.09ZM23.71,15.26h3.36a1.59,1.59,0,0,0-1.61-1.78C24.52,13.48,23.89,14,23.71,15.26Z"/><path class="cls-2" d="M44.16,8.05c3.31,0,5.93,3.34,5.93,9s-2.62,9-5.93,9a4.11,4.11,0,0,1-3.94-2.62v2.4H34.57V2.78h5.65v7.89A4.11,4.11,0,0,1,44.16,8.05Zm-1.88,6c-1.17,0-2.09,1-2.09,3s.92,3,2.09,3,2.09-1,2.09-3S43.45,14.1,42.28,14.1Z"/><path class="cls-2" d="M67.06,25.87H61.41V23.18A4.88,4.88,0,0,1,57,26c-3.31,0-5.24-3-5.24-7.52V8.27h5.62V17.6c0,1.68.79,2.71,2,2.71s2-1,2-2.71V8.27h5.65Z"/><path class="cls-2" d="M70.49,14H68.71V8.27h1.78V4h5.65V8.27h2.34V14H76.14v4.75c0,.81.31,1.18,1,1.18h1.35v5.9H76.39c-3.35,0-5.9-1.75-5.9-7.21Z"/><path class="cls-2" d="M92.07,26.09c-4.12,0-7.36-2.34-7.61-7.3h6c.1,1.62.82,1.9,1.38,1.9a1,1,0,0,0,1.09-1.09c0-3-8.52-1.91-8.42-9.46,0-4.43,3-6.74,6.89-6.74,4.35,0,7.15,2.56,7.31,7.15H92.62C92.57,9.21,92,8.8,91.38,8.8c-.46,0-.82.37-.82,1.12,0,2.78,8.37,2.31,8.37,9.11C98.93,23.09,96.42,26.09,92.07,26.09Z"/><path class="cls-2" d="M100.51,3.46a3.25,3.25,0,1,1,6.49,0,3.25,3.25,0,1,1-6.49,0Zm.41,4.81h5.65v17.6h-5.65Z"/><path class="cls-2" d="M118.78,16.54c0-1.69-.79-2.72-2-2.72s-2,1-2,2.72v9.33h-5.65V8.27h5.65V11a4.88,4.88,0,0,1,4.4-2.81c3.3,0,5.24,3,5.24,7.52V25.87h-5.62Z"/><path class="cls-2" d="M132,8.05a4.13,4.13,0,0,1,4,2.62V8.27h5.63V25.56c0,4.65-2,9-7.33,9-4.68,0-7.4-2.9-7.78-7.36H132a1.62,1.62,0,0,0,1.83,1.37c1.15,0,2.11-.5,2.11-3V23.47a4.13,4.13,0,0,1-4,2.62c-3.31,0-5.93-3.34-5.93-9S128.7,8.05,132,8.05Zm1.88,6c-1.17,0-2.09,1-2.09,3s.92,3,2.09,3,2.08-1,2.08-3S135.06,14.1,133.89,14.1Z"/><path class="cls-2" d="M144.14,2.78h5.65V25.87h-5.65Z"/><path class="cls-2" d="M158.9,26.09c-4.3,0-7.33-3.4-7.33-9s3-9,7.33-9,7.32,3.34,7.32,8.86a10.64,10.64,0,0,1-.08,1.38h-9c.08,1.77.76,2.27,1.53,2.27a1.4,1.4,0,0,0,1.32-1h6C165.31,23.28,162.51,26.09,158.9,26.09Zm-1.76-10.83h3.36a1.59,1.59,0,0,0-1.6-1.78C158,13.48,157.32,14,157.14,15.26Z"/></g></g></g></svg>